<?xml version="1.0" encoding="UTF-8" standalone="no"?>
<svg width="322px" height="48px" viewBox="0 0 322 48" version="1.1" xmlns="http://www.w3.org/2000/svg" xmlns:xlink="http://www.w3.org/1999/xlink">
    <!-- Generator: Sketch 42 (36781) - http://www.bohemiancoding.com/sketch -->
    <title>path22</title>
    <desc>Created with Sketch.</desc>
    <defs></defs>
    <g id="Desktop" stroke="none" stroke-width="1" fill="none" fill-rule="evenodd">
        <g id="Página-&quot;Antes-da-Prova&quot;-Completa" transform="translate(-120.000000, -382.000000)" fill="#FABB69">
            <g id="Group-3" transform="translate(-292.000000, 0.000000)">
                <g id="Group" transform="translate(412.000000, 382.000000)">
                    <path d="M163.731589,46.8182384 C162.358416,46.7712427 160.650829,47.229265 159.637227,46.9525121 C157.993267,46.5041873 156.79618,45.6396142 155.418568,44.9548185 C154.261434,46.9301331 150.935041,47.0114433 146.344976,46.8182384 C142.00942,46.6354771 137.448948,46.5772918 132.92251,47.1136405 C128.977598,47.5813604 124.649441,47.5582354 120.59799,47.3083373 C118.860809,47.2009183 117.395894,45.9715685 115.973891,45.1823378 C112.959718,44.2551036 108.143256,49.9244356 106.235908,43.6807108 C104.874573,44.9481049 104.140636,45.6299166 102.950948,46.7376742 C100.752096,46.2624947 98.4748195,45.4769939 96.0244168,45.3024381 C92.8282393,45.0749189 89.5847111,45.0241933 86.3441422,44.9533266 C86.3323045,45.0271771 86.3160277,45.0965518 86.2834741,45.1428017 C86.0718753,45.1689104 85.9327824,45.071935 85.8055271,44.9406452 C85.2506352,45.0309069 85.2151221,45.1077413 85.1366974,45.1166929 C85.1248597,45.0577617 85.1159815,44.987641 85.102664,44.9249799 C84.8866261,45.2270957 84.7800869,44.9771975 84.5314953,45.0876003 C84.3628082,45.0816325 84.2000399,45.0130038 84.0431904,44.8951414 C83.5312101,44.9436291 83.5341696,45.0115119 83.5489667,45.0704431 C83.4128332,44.903347 83.2426663,44.8004038 83.1627619,45.219636 C82.9689197,45.1935273 82.8830964,45.2121764 82.6936933,44.9294557 C82.2764145,44.8973793 82.2349826,44.9913708 82.2423812,45.1636887 C81.3338381,45.0607455 80.3394718,45.177116 79.4131722,45.1711483 C79.2356068,44.9048389 79.5241506,45.0637294 79.4235302,44.8757463 C79.1645806,44.5296186 79.152743,45.0704431 79.152743,45.0704431 C78.9870152,45.1025196 78.782815,44.8929035 78.55198,44.6720979 C78.0326011,44.7534081 77.8861097,46.214007 77.7292602,45.9156211 L77.8579951,44.6407674 C77.427399,44.8265126 77.3090221,45.0025603 77.2320771,45.0018143 C77.1817668,45.3449581 77.4451555,45.2703616 77.5886876,45.262156 C77.6286398,45.834311 77.0974233,45.6306626 77.31938,46.1550758 C76.9923637,46.0618302 77.3622917,45.8611657 77.1714089,45.6500577 C76.8873042,45.4076191 76.8281157,44.9712298 76.5277342,45.2882648 L76.2643455,44.7258074 C76.2081165,45.177116 76.051267,44.8048796 75.897377,44.9078228 L75.9684032,45.1972571 C75.7716015,45.1793539 75.6872579,45.2561883 75.5511245,45.4180626 C75.62511,45.8178997 75.7375681,45.3270549 75.7553247,45.7037671 C75.5466853,45.5754612 75.4297881,45.3718128 75.5969955,45.2211279 C75.5052534,44.9316936 75.4431055,44.6743358 75.306972,44.5191751 C74.737283,44.7936902 75.0716978,44.8101014 74.9488818,45.1897974 C74.6277843,45.2942325 74.5286436,44.8354642 74.4354218,44.4759092 C74.0166633,44.4550222 73.5979049,44.4341352 73.1776668,44.4132481 L73.26349,44.7041744 C73.1717479,44.6079449 73.053371,44.7205856 73.0518913,44.9391533 C73.1273566,44.5624411 72.7219155,44.5445379 72.5029182,44.3796797 C72.2898397,44.5997393 72.4378109,44.7921982 72.6523691,44.7064123 C72.6908416,45.5433847 72.4185746,44.5997393 72.2099352,44.8869357 C72.2957585,45.0913301 72.4822022,45.2308255 72.4585268,45.6567714 C72.2543266,45.5635258 72.4230137,44.8212909 72.1093148,45.1689104 C71.9450668,44.9294557 71.7038738,45.579191 71.589936,45.6343924 C71.5070721,45.3195953 71.5751389,44.6512109 71.2540414,44.7713112 L71.3369053,45.241269 C70.9980513,45.242015 71.2496023,44.5542355 70.9285048,44.5676628 C70.9906527,44.5393162 70.9669773,44.4125022 70.9640179,44.2968776 C70.1161431,44.372966 70.1087445,44.4333892 70.0184821,44.5184292 C69.993327,44.4356271 69.9874081,44.3416355 69.9888878,44.2424222 C69.3230175,44.394599 69.4887453,44.4430867 69.4857858,44.7317751 L69.3644495,44.8839519 C69.6722295,44.9122985 69.3437335,45.5433847 69.5745685,45.6701987 C69.2993422,45.3457041 69.4088408,44.924234 69.238674,44.7190937 L69.0788651,44.8787301 C69.0359535,45.136088 69.2919436,45.4374577 69.2061203,45.6560254 L69.0300346,45.4799777 C69.0181969,45.3225792 69.0921825,45.241269 69.0196766,45.0256852 C68.9294142,45.198003 68.812517,44.4207078 68.5979588,44.1916966 C68.4440687,44.2088538 68.3242121,44.2439142 68.2827802,44.4296594 C68.1510858,44.2924019 68.0179117,44.2006482 67.8847377,44.1230679 C66.9924715,44.1581282 66.9347627,44.2386924 66.8800134,44.3207485 C67.1508006,44.3893773 67.1463615,44.8846979 67.118247,45.2024788 C66.9362424,45.1480234 66.84598,44.6362916 66.9392019,44.4714334 C66.3295606,44.6236102 66.5455985,44.945867 66.4775318,45.1308662 C66.1638329,45.1465315 66.4420187,44.5281267 66.1031647,44.6370376 C66.1135227,44.7034284 66.1416372,44.7243154 66.1076038,44.8153231 C65.9182007,44.9152824 65.7598716,44.6758277 65.7554324,44.4304053 C65.4861249,45.0689511 65.259729,44.3438734 65.2049796,44.9697378 C64.8261734,44.7862305 65.3189174,44.6303239 65.270087,44.4087724 C64.802498,44.4535302 64.8172952,44.966008 64.8172952,44.966008 C64.2757206,45.2539504 64.6782022,43.9701451 64.1603031,44.3252243 C64.3482265,44.5624411 64.1736205,44.6571786 64.2342887,44.9689919 C64.1810191,44.8570972 63.8081317,44.9622782 64.0833581,44.6407674 C63.9087521,44.669114 63.7755781,44.7407267 63.6453634,44.8145772 C63.534385,44.6407674 63.401211,44.5132074 63.3730964,44.225265 C63.1363426,44.2588334 62.9217844,44.5602032 62.7812117,44.7437105 C62.3802098,44.4087724 61.9022629,44.9279638 61.5264161,44.5818362 C61.2186361,44.628086 61.7764874,43.9820805 61.4198769,43.9880482 C61.4124783,44.522159 61.1742447,44.3423815 61.0514287,44.6243562 C60.6533862,44.8899196 60.3796395,44.2282489 60.0541029,44.5922797 C60.0659406,44.7034284 60.0970145,44.8369561 60.1591624,44.8496375 C59.8395447,44.9533266 59.6856547,45.0219554 59.6856547,45.0219554 C59.5080893,45.4672963 58.9635553,44.986895 58.3553938,44.9070768 C58.4219808,44.9697378 58.4974461,45.1674185 58.5551549,45.2353013 C58.3228401,45.3770346 57.804941,45.495643 57.4187362,45.028669 C57.0946793,45.5762072 57.1242736,44.8884277 56.5900976,45.4225384 C56.4154916,45.7142106 56.1639406,45.6679608 55.7895735,45.7328598 C55.4492398,45.60157 55.2243236,45.4038893 55.0319611,45.2345553 C54.8573551,44.9719757 54.7005057,44.7638516 54.3483343,44.8690326 C54.2329167,45.5918724 54.6768303,45.0674592 54.6279998,45.6455819 C54.3276183,45.8089482 54.2639907,45.7000373 54.2995038,45.9685846 C54.1500529,46.1520919 53.8985019,45.1860676 53.8955424,45.2546964 C53.9073801,45.114455 53.9591701,45.0406045 54.0686687,45.0674592 C53.9946831,44.6146586 53.5167362,44.9995764 53.2696244,44.8048796 C53.3613665,44.79742 53.6587886,44.6720979 53.6055189,44.3237324 C53.4368318,44.3819176 53.3421302,44.2752447 53.2696244,44.1148623 L53.3051374,44.3020994 C53.1364503,44.5527435 53.0802213,43.5956708 52.886379,43.7888757 C52.9218921,44.0059514 53.1024169,44.2513738 53.0091951,44.5773604 C52.9218921,44.7593758 52.7132527,45.156229 52.8242311,45.3621153 C52.4942554,45.453123 52.3507233,45.0062901 52.1021318,44.880968 L52.0814158,45.0241933 C51.6937313,44.9413912 51.4954499,44.3006075 51.1329205,44.5713927 L51.3208439,44.416232 C51.2853309,44.3349218 51.1284814,44.352825 51.0766915,44.1230679 C51.0618944,44.183491 51.048577,44.246152 51.0293407,44.3073212 C50.8946869,44.4177239 50.7689114,44.5616951 50.8059042,44.7041744 C50.8073839,44.4960502 50.755594,44.3662524 50.6816084,44.269277 C50.4744488,44.458006 50.293924,44.8750003 50.0497715,44.4318973 C50.0438527,44.4423408 50.0186976,44.6989526 50.0186976,44.6989526 C49.5585072,44.077564 49.1086748,44.9891329 48.7195106,44.1081486 C48.2238072,45.156229 47.8953111,43.9671612 47.8953111,43.9671612 C47.0888682,44.056677 46.2247165,44.2327247 45.3250518,44.3013534 C44.8811382,44.3386517 44.425387,44.3453654 43.9873923,44.3073212 C43.3200423,44.1819991 43.1839088,44.1282896 43.0507348,44.0581689 L43.0167014,44.2662931 C41.1315486,44.5415541 39.2582334,44.0872616 37.155563,44.2483899 C36.9632005,44.0551851 37.0830571,43.5949248 36.91437,43.3621838 C36.8418641,43.380087 36.6746567,43.3547242 36.6731769,43.6113361 C36.816709,43.7523234 36.7338451,43.9790967 36.7826756,44.0798019 C36.544442,44.0529472 36.2026286,43.7053276 36.2026286,43.7053276 C35.9466385,43.845569 35.8356601,44.2081078 35.9007674,44.288672 C35.0854462,43.612828 34.6001007,43.0354513 34.2878815,42.5326711 L34.1177147,42.7154324 C34.3411512,42.7117026 34.1103161,43.2286562 34.3870222,43.1958337 C33.7640636,43.0302295 33.7551853,42.7989805 33.669362,42.7191622 C33.5317488,42.8153917 33.515472,43.168979 33.3586225,43.2032934 L33.5080734,43.4248449 C33.1825368,43.590449 32.945783,43.6426666 32.9783366,43.9701451 C32.7770958,43.5673241 32.6957117,43.7933515 32.4752346,43.5367396 C32.7238262,43.2286562 32.4278838,43.1488379 32.4633969,42.9041615 C32.3598171,43.2092611 32.8052103,43.0869229 32.8037306,43.5210743 C32.8052103,43.0682737 32.9931337,42.8168836 32.2325619,42.5259574 C32.1511777,42.6206949 32.1127052,42.7191622 32.0742327,42.8183755 C32.0919893,43.1876281 32.093469,43.2249263 32.0860704,43.0772253 C32.0964284,43.274906 32.1053067,43.4531915 32.1127052,43.6202876 C32.180772,43.8000651 31.9395789,43.9828265 32.0505573,44.1685717 C31.9499369,44.099943 31.4734697,44.0208707 31.4734697,43.9477662 C31.4734697,43.3509944 31.2367158,42.7333356 31.5652119,41.9873708 C31.1967636,42.7333356 30.9718474,42.6124893 30.912659,42.9451896 C30.6625877,42.6490416 30.4125164,42.3633371 30.1639248,42.0671891 C29.9937579,42.449869 29.8457868,42.8280731 29.6963359,43.2040393 C29.4728994,42.8705931 29.0497018,42.5811588 28.5569578,42.3312606 C28.5140462,42.2275715 28.3068865,42.2074304 28.1722327,42.152975 C27.2770071,42.3208171 26.4010177,42.4819455 25.5057921,42.6490416 C25.490995,42.4647883 25.4850761,42.2775511 25.4687993,42.0932978 C25.3918543,42.0910599 25.295673,42.6632149 25.295673,42.6632149 C25.218728,42.3745265 25.1950526,42.3969055 25.1861743,42.0813624 C24.9035494,42.2775511 24.7526188,42.4782156 24.6031679,42.6788801 C24.6934303,42.4782156 24.7496594,42.2738213 24.7866522,42.068681 C24.7245043,42.0671891 24.5720939,42.2671076 24.5720939,42.2671076 C24.4877504,42.3178332 24.5632157,42.1775918 24.5839316,42.0627133 C23.5732885,42.0007982 23.3276563,42.0000522 23.0790648,41.9873708 C22.9458907,41.9023309 23.1071793,42.1671483 23.0139574,42.173862 L22.8748645,41.9873708 C22.1646029,42.0589835 22.1142927,42.1693862 22.0625028,42.279789 C21.9633621,42.1596887 21.8657011,42.0403343 21.7665604,41.920234 C21.4928137,41.9605161 21.5845558,42.069427 21.5845558,42.069427 C21.6082312,42.195495 21.6171095,42.2096683 21.6230284,42.2186199 C21.4898543,42.1015034 21.3907136,41.8128151 21.2279453,41.8046095 C20.8121463,41.6315457 20.3904284,41.5547113 19.7911452,41.4569899 C18.0539635,41.1981402 16.8642752,41.0213465 15.6790261,40.8452988 C14.0957345,40.6192715 12.429579,40.3305832 10.8936382,39.9792338 C10.340226,39.6249005 9.82972541,39.2280473 9.16089568,38.7662951 C8.98480998,38.557425 8.68738791,38.346317 8.35445275,38.1187977 C7.51101703,37.2564625 6.70457411,35.9405807 5.94252254,34.3412323 C5.83894271,34.1196808 5.73832231,33.8802261 5.6362222,33.6489771 C4.94223737,32.5561387 4.53383692,31.4901551 4.13431474,30.3652403 C3.77622448,28.7285937 3.24056882,27.0016854 2.72266969,25.2374788 C2.2343648,24.2580271 1.94730071,23.2673859 1.66023663,22.271523 C1.62324383,22.1342655 1.58625104,21.996262 1.54925824,21.8560206 C1.52854228,21.0362054 1.29030868,20.1761081 1.04763595,19.2995995 C0.563770191,18.231378 0.287064087,17.1840435 0,16.1031406 C0.390643912,14.6350821 1.10238528,11.7026947 1.99021235,11.8399522 C5.62734393,12.4053935 10.7708221,11.6400337 17.4058498,10.8448353 C17.5138687,10.7732226 17.6189283,10.7008641 17.7180689,10.6247757 C17.9193097,10.5300381 18.0791186,10.4009862 18.2655623,10.2659666 C18.6754425,10.0362095 19.3013606,9.79302499 20.1729108,9.5453647 C21.0429813,9.29845037 22.1572043,9.04631429 23.5392551,8.81506522 C24.222882,8.69944069 25.0352437,8.59202177 25.8505649,8.4920625 C26.661447,8.39210322 27.4767682,8.30333342 28.2994879,8.21978537 C28.6117071,7.86396019 28.7552392,7.51037291 29.131086,7.18289439 C29.2894151,7.01952812 29.6267894,6.8591457 29.8235911,6.70771486 C30.2053567,6.58761454 30.4509889,6.56225174 30.4509889,6.56225174 L31.83156,6.47795772 C33.01237,6.41231283 34.018574,6.3705388 34.8901242,6.33473249 L36.3565186,6.33324056 C37.2029138,6.27878514 37.2058732,6.24297883 37.2206703,6.21015638 C37.242866,6.14376552 37.2547037,6.08110449 37.2606225,6.02963292 C41.3283502,5.8819319 44.8811382,5.94981469 47.6481993,6.05574168 C47.6866718,6.04231432 47.6985095,5.82896841 47.6985095,5.82896841 C47.8213256,5.94086312 47.9456213,6.02515713 48.0713968,6.07289887 C48.1039505,6.0743908 48.229726,5.75064211 48.229726,5.75064211 C48.4398451,5.2262289 48.6899164,4.72195675 49.0968371,4.29601088 C49.2936388,4.09236251 49.5466695,3.87677871 49.7893422,3.70744471 C50.0083396,3.55825177 50.252492,3.40980478 50.5010836,3.27776903 C51.4170252,2.813033 52.1139695,2.61759024 52.7191716,2.44676432 C53.8777859,2.16180579 54.5836084,2.04618126 55.2124859,1.95741145 C55.3574977,1.83059745 55.694872,1.69184801 55.9434636,1.62098136 C56.0263274,1.71646485 55.9123896,1.81120237 55.7658981,1.88579884 C56.2763987,1.77315817 56.2497639,1.70975116 55.9760172,1.64932802 C56.7203122,1.69333994 56.8816008,1.71721081 56.8904791,1.71646485 C57.096159,1.61501364 57.0414097,1.5292277 56.9555864,1.45164737 C56.8564457,1.374813 56.6966369,1.30693021 56.8002167,1.23979338 C57.34771,1.32035757 57.5489508,1.46805859 57.5667074,1.61426768 C58.7001666,1.6179975 58.9783524,1.60009435 59.2535788,1.58219119 L60.8738632,1.4911835 L61.9792079,0.719110001 C61.9792079,0.719110001 62.1863676,-6.75015599e-14 62.189327,-6.75015599e-14 C62.1908067,-6.75015599e-14 62.0383964,0.708666494 62.0428355,0.72060193 L62.0162007,1.01749589 C62.0428355,1.07493518 62.091666,1.23531759 62.1538139,1.45612315 C62.1508545,1.5926347 62.1109023,1.71348099 62.0694704,1.78136378 C62.2011647,1.87759323 62.2277995,1.92608093 62.266272,1.92309708 C62.2292792,1.78285571 62.2070836,1.58144523 62.1478951,1.57771541 C62.1404965,1.57771541 62.2647923,1.42479264 62.2647923,1.42479264 L63.2088484,1.32856319 L63.4352443,0.995116951 C63.8288477,1.08015693 63.7948143,1.16519691 63.7326664,1.30170846 C64.4296107,1.18160813 64.8202546,1.2838053 64.8202546,1.2838053 C65.6045018,1.28753513 66.2955272,1.3091681 66.8607771,1.32856319 C67.0191063,1.22487409 67.1774355,1.12640674 67.4097502,1.14058007 C67.369798,1.2584425 67.3106095,1.40539755 67.1863137,1.50013507 C67.2292254,1.56205015 67.2499413,1.62844101 67.2558602,1.69856169 C67.9897972,1.6179975 67.9883175,1.58666698 67.9676015,1.56130418 C68.5757631,1.62769504 69.1794855,1.35914774 69.3318958,1.67618275 C69.4502728,1.55757436 69.4517525,1.45463123 69.4325162,1.41658702 C69.4872656,1.55086068 69.5139004,1.62620311 69.5257381,1.6687231 C69.9356182,1.6560417 70.3736129,1.64858206 70.8589584,1.65081995 C72.4748037,1.66723117 73.7799094,1.70452941 75.3720793,1.75301712 C84.060947,2.0155967 92.7453754,2.3139826 101.434243,2.56910253 C102.071999,2.58775165 102.755626,2.26922471 103.385983,2.29682541 C107.196241,2.46242958 110.99762,2.68248917 115.269548,2.90926245 C117.527588,1.3367688 118.919997,1.36959125 122.648871,3.45978442 C129.269101,1.14132604 130.414398,1.11596324 136.485656,3.15393888 C140.732429,0.864573123 141.370184,0.895157677 144.631469,3.67760612 C147.795093,2.45273203 150.559195,-0.334938164 154.615085,2.3244261 C156.170262,1.94249216 157.82162,1.22711198 158.596989,1.41807895 C159.841427,1.72392449 160.504338,2.62952568 162.146818,3.80814995 C163.327628,3.11887854 164.527674,2.41841766 166.562278,1.23158777 C167.892539,1.52400595 170.279314,2.04916512 173.231339,2.69815443 C173.294966,2.64295304 173.897209,2.12077773 174.820549,1.3218495 C176.658351,1.80971044 179.119112,2.08497142 180.344313,2.85853685 C184.373568,5.39929272 188.47385,5.26501907 194.01685,4.02895551 C198.612835,3.00399997 204.015263,2.89881894 209.108431,2.38186539 C209.784659,3.37922023 210.457928,3.49932055 211.202223,4.59738064 C212.254298,3.92153659 213.111051,2.96819366 213.708855,2.40946608 C216.214007,2.5422478 218.702882,2.67502952 221.193237,2.80706528 C221.092616,2.21103946 220.744884,2.80333546 220.386794,2.02678617 C221.64159,2.73172284 222.301541,3.47694161 222.604882,3.64776753 C231.113225,2.42513134 238.989731,3.02712488 247.224327,4.34673649 C247.643085,4.01478218 248.408096,3.47843354 249.198262,2.85182317 C249.904085,2.92343578 250.478213,2.94506876 250.859979,3.07561259 C253.26451,3.89542782 255.260641,5.48806252 258.137201,3.0838182 C258.924408,2.42662327 263.030608,2.00216934 265.091846,1.89027463 C265.785831,3.04726593 266.504971,2.85182317 266.618909,3.44859495 C270.655563,3.66268683 273.783674,3.82903696 277.044958,4.00210078 C277.749301,2.85853685 282.712254,2.66160216 283.663709,3.7775654 C287.068526,7.77220653 294.320593,7.38952662 300.412567,8.08178189 C301.517912,9.41332894 302.543352,10.8806416 303.814424,12.4106152 C309.452126,9.25145459 316.051641,11.2379587 321.613877,10.6717714 C320.36944,11.9466252 319.247818,13.4042402 317.623095,14.6462715 C317.071162,15.0692335 315.248157,15.1550195 313.969686,15.2631844 C310.46129,15.5593324 306.929218,15.8040088 303.408983,16.0613666 C303.460773,16.2776964 303.511083,16.4992479 303.562873,16.7155777 C309.401816,17.1825516 315.239279,17.6525094 322.079987,18.1993015 C318.493165,18.9997217 315.786772,19.986633 312.877659,20.1738702 C307.245876,20.5349171 303.089365,22.907085 296.620066,22.4587602 C292.059594,22.1432171 287.016736,23.2644021 282.32309,23.9708307 C280.78567,24.2020797 278.745147,25.1017132 278.619372,25.7753193 C278.495076,26.4481795 280.384668,27.2642649 281.578795,27.9311574 C282.22247,28.2907124 283.261228,28.4704899 283.850153,28.6487755 C283.153209,30.4860866 282.52729,32.1346687 281.874738,33.8541174 C282.68562,34.1823419 284.625522,34.7492751 284.486429,34.9521775 C283.977408,35.6914285 282.944569,36.399349 281.791874,36.9513629 C279.853451,37.880089 277.841043,38.8259723 275.551929,39.4995785 C272.604343,40.3671354 269.482151,41.2630391 266.209029,41.6270699 C260.381924,42.2738213 254.323984,42.3842241 248.476163,42.9936773 C243.422947,43.5195824 238.526581,44.4251836 233.562148,45.1644346 C232.740908,45.2867728 231.850121,45.5918724 231.114704,45.5150381 C224.263639,44.7929442 217.782501,46.4161634 210.977307,46.2662245 C207.6228,46.1916281 204.201706,46.86971 200.810207,47.2098699 C199.97121,47.2941639 199.129254,47.4784172 198.300616,47.46126 C193.173414,47.356825 188.052132,47.144971 182.923451,47.0942454 C179.33663,47.059185 175.73945,47.3090832 172.154109,47.271039 C169.342656,47.2404545 166.547481,46.9159598 163.731589,46.8182384 Z" id="path22"></path>
                </g>
            </g>
        </g>
    </g>
</svg>