<?xml version="1.0" encoding="UTF-8" standalone="no"?>
<svg width="351px" height="55px" viewBox="0 0 351 55" version="1.1" xmlns="http://www.w3.org/2000/svg" xmlns:xlink="http://www.w3.org/1999/xlink">
    <!-- Generator: Sketch 42 (36781) - http://www.bohemiancoding.com/sketch -->
    <title>Combined Shape</title>
    <desc>Created with Sketch.</desc>
    <defs></defs>
    <g id="Desktop" stroke="none" stroke-width="1" fill="none" fill-rule="evenodd">
        <g id="Página-&quot;Antes-da-Prova&quot;-Completa" transform="translate(-120.000000, -438.000000)" fill="#FABB69">
            <g id="Group-3" transform="translate(-292.000000, 0.000000)">
                <g id="Group-2" transform="translate(412.000000, 438.000000)">
                    <path d="M68.9167864,1.28204353 C69.5168984,1.26718169 70.2429401,1.3426545 70.9165345,1.4798517 C70.9469168,1.42716416 70.9909188,1.38325787 71.0453974,1.3461371 C71.2727551,1.34481801 71.4308245,1.37801009 71.526958,1.44177824 C72.1675549,1.30108337 72.8090277,1.10815115 73.4646065,1.04586354 C73.709803,1.05271064 73.9082954,1.11034036 74.0897229,1.1873702 C74.2676556,1.20616298 74.4178289,1.23587289 74.5449483,1.27464561 C75.8610865,1.25094278 77.4200202,1.25878392 78.7450686,1.2595814 C80.1444766,1.01325665 81.5937054,0.979950632 83.1287615,1.28836487 C84.4337817,1.55026631 85.6462918,1.23701165 86.9073024,1.05556359 C88.7566049,0.789668018 90.4020261,1.14001112 91.7079444,2.04325724 C91.8004297,2.10780892 91.8959791,2.16201926 91.994062,2.20785453 C92.171222,2.18648515 92.0978955,2.00487601 92.3088335,2.00592882 C92.359939,2.03351216 92.4104271,2.05679788 92.4587318,2.07689207 C92.6620568,1.59052572 93.4335866,1.32905082 93.956028,1.48065416 C95.0067339,1.78424146 94.3265832,1.95598163 93.897749,2.14422138 C94.1369589,2.14100503 94.4304942,1.98827959 94.6095087,1.9484515 C95.2376558,2.06577259 95.9649336,2.12057334 96.7398735,2.17555031 C100.063271,1.64957459 103.22623,0.453515327 106.853543,1.21532918 C107.211908,1.27638245 107.450817,1.51660142 107.734634,1.69006119 C107.987914,1.7488321 108.241194,1.80703242 108.897746,1.75967334 C109.552501,1.80760301 109.871346,2.11458116 110.195581,2.41984754 C110.341082,2.57048366 110.518917,2.67547247 110.714715,2.75478467 C111.310192,2.68631371 111.894891,2.6338193 112.548748,3.06975111 C112.668595,3.07156334 112.788575,3.07382798 112.908643,3.0764021 C112.891204,3.05163963 112.872899,3.02345792 112.85357,2.99142534 C113.59427,3.00898786 114.542408,2.97186709 115.268441,3.00818956 C115.101862,3.00579467 114.967761,3.02335719 114.909092,3.08961576 C115.343873,3.10837572 115.593218,3.14868967 115.834181,2.92596506 C116.733805,3.01749856 117.57404,2.94958203 118.414767,2.88203253 C119.238902,2.71690512 120.030339,2.44809525 120.771364,2.01872182 C121.119848,1.95538617 121.465638,1.89889763 121.807835,1.85096795 C124.2113,0.718344098 124.950482,0.753720762 125.899832,2.13911659 C126.109103,2.22242293 126.313882,2.32284701 126.516865,2.43639469 C127.529087,1.56624286 128.576336,0.853574251 130.517251,0.956280696 C132.317155,1.05214005 131.834845,1.53942507 131.451333,2.05523966 C131.901309,2.05466907 132.478823,2.15052842 132.690787,1.98848047 C135.147243,0.11237607 138.486586,1.23472928 141.388527,0.95799247 C143.083347,0.796515114 144.003956,1.74597914 144.838343,2.56648952 C145.008094,2.70514323 145.152697,2.85634994 145.344903,3.02296261 C145.743684,2.89914429 145.968223,2.60414855 146.225993,2.34167653 C146.296948,2.11401057 146.416402,1.9006094 146.599626,1.69862006 C146.878953,1.44870104 147.360364,1.10292268 147.685496,1.20163498 C151.777494,2.44666534 156.863749,0.445030835 161.359018,2.78844956 C162.144904,2.19275218 163.149042,1.98505692 164.439692,2.28632916 C164.896853,2.22641707 165.3612,2.19617573 165.844408,2.23326417 C174.402035,1.74940269 182.945291,2.28290562 191.493937,2.33996475 C192.082229,2.44666534 192.718123,2.51913044 193.213905,2.72910806 C194.064459,2.66577242 194.914114,2.59958382 195.759278,2.63781344 C196.253264,2.4626419 196.786768,2.36564136 197.446913,2.44381238 C197.917546,2.46720663 198.482486,2.45522421 198.784267,2.66805479 C199.446207,3.13536911 200.055157,3.63634833 200.70632,4.0945332 C201.53891,4.04203879 202.40563,4.07056836 203.331629,4.2463105 C205.111773,4.58352999 207.339199,3.96786191 209.36454,3.78241972 C210.087556,3.68998392 210.779136,4.13447459 211.513827,3.83206117 C212.119184,4.26742238 212.769448,4.5435886 213.456538,4.72275429 C213.987348,4.73017197 214.517259,4.73930144 215.048069,4.74329558 C215.454934,4.81690186 215.886049,4.87453159 216.264172,4.98522631 C216.842584,4.96810857 217.442552,4.92360245 218.064974,4.86654331 C221.903692,4.51505903 225.753187,5.23286297 229.677229,5.15469195 C232.894422,5.09078572 235.848456,4.48595887 238.947094,4.2463105 C240.135353,4.03576228 241.046981,4.37469355 241.892146,4.84600202 C243.850125,5.26881022 245.680567,5.37722258 247.852307,5.04228545 C252.096092,4.38895834 256.512324,4.27769302 260.902509,4.30165786 C261.967721,3.24606384 263.44878,2.84265574 265.37712,3.14335739 C266.0687,3.33108195 266.756687,3.44234727 267.391683,3.04236272 C268.170384,2.80842026 268.916752,2.91340907 269.652341,3.12167492 C274.474539,3.5193771 279.088365,4.40664667 283.636625,5.4485465 C284.835663,5.55182354 286.02033,5.68933606 287.193321,5.85423696 C288.918678,5.97006701 290.63685,6.13953264 292.376578,6.15722097 C297.144886,6.20115651 301.878167,6.07277345 306.529715,5.30475748 C307.887726,5.08051507 309.311303,5.02745007 310.482498,5.72128917 C311.384246,5.88048416 312.282402,6.0499498 313.189539,6.19488 C313.529042,6.24908618 314.095778,6.16692103 314.208048,6.28332167 C314.487374,6.57261149 314.270918,7.09698495 314.076019,7.57057578 C314.609523,7.50096364 315.141231,7.4239338 315.671143,7.33606273 C316.860301,7.1397793 318.105145,7.0935614 319.129042,7.70067061 C319.917623,7.8404655 320.703509,7.98824866 321.497479,8.11491994 C321.79387,8.16227903 322.289652,8.09038451 322.388449,8.19252037 C322.987519,8.81275318 320.972956,10.6791575 323.051288,10.0629189 C326.09424,9.16024332 325.510438,10.7772992 326.39602,11.2594489 C327.552844,11.8893818 328.44112,12.7184511 329.44436,13.4619316 C330.28234,14.1717473 331.383478,14.8924042 329.242275,15.481825 C328.548001,15.4025128 327.857319,15.3420302 327.209749,15.4458778 C327.99833,15.9810925 328.689011,16.5893429 329.44436,17.149093 C330.079356,17.6871607 330.863446,18.2320754 330.27246,18.7205016 C330.450295,18.8026668 330.635315,18.8768436 330.8374,18.9344734 C330.979308,18.9744148 331.315219,18.7376194 331.561583,18.629207 C333.24311,18.9504499 332.227475,19.7047717 332.22505,20.296475 C331.700168,21.8587541 335.133817,21.3937222 335.053163,22.8801127 C334.21186,22.8219123 333.360319,22.8076476 332.502491,22.8116417 C332.563301,22.9740712 332.510344,23.1548454 332.435013,23.3392344 C332.820285,23.3464674 333.232781,23.3812437 333.684872,23.4561447 C333.679634,23.4453677 333.667062,23.4381831 333.663919,23.4258095 C334.163655,23.5092314 335.366376,23.2350167 335.290944,23.6146065 C334.974549,23.5922542 334.545006,23.6277784 334.205562,23.6177997 C333.76659,23.7307586 334.256898,23.8820357 334.545006,23.9586721 C333.675286,24.0499097 332.669366,24.0823541 332.231648,23.8992119 C332.227477,23.9276709 332.22515,23.955833 332.22505,23.9836364 C332.21434,24.015526 332.205278,24.0465711 332.197801,24.0768054 C333.124165,24.4001496 334.285398,24.6463373 335.771823,24.8244242 C335.796967,24.8192353 335.825254,24.8164413 335.859827,24.8180379 C335.872399,24.8244242 335.872399,24.8308106 335.882876,24.837197 C336.066218,24.8583518 336.246416,24.880305 336.440234,24.8994641 C336.822633,24.861545 337.28151,24.7334185 337.553904,24.8032694 C337.893348,24.6040945 338.744053,24.3689963 339.110736,24.5653772 C339.114927,24.5613857 339.123308,24.5593899 339.127499,24.5553985 C339.125403,24.5641797 339.130642,24.5693686 339.129594,24.5777507 C339.183025,24.6104809 339.228075,24.6507948 339.253219,24.7062764 C339.221789,24.7062764 339.189311,24.7054781 339.155786,24.705079 C339.171501,24.729427 339.188263,24.7529767 339.207121,24.7757282 L339.207121,24.7757282 C338.908536,24.7577665 338.80796,24.8791075 338.4308,24.80766 C338.436039,24.7681444 338.460135,24.7414014 338.490517,24.7194483 C338.328129,24.7489853 338.243268,24.8192353 338.348035,24.9876758 C338.0044,25.0080323 337.948874,24.8811033 337.624097,24.893876 C337.960398,25.3173721 336.973497,25.0559301 336.90016,25.2682769 C337.153695,25.5373026 336.221272,25.7440613 336.714723,25.8298782 C336.685388,25.5660413 337.254271,25.5951791 337.254271,25.4558764 L337.254271,25.9236779 C336.206605,26.1444068 335.70163,25.7272971 334.905403,26.0166794 C334.849803,25.7745119 334.671984,25.6912685 334.436849,25.6789048 C334.660511,25.7971636 334.844337,25.9389512 334.951714,26.1237703 C336.23534,26.077155 337.892922,25.9806134 338.70948,26.3914795 C337.528809,26.4121345 336.297758,26.4189395 335.049545,26.4227252 C335.054593,26.4687695 335.055896,26.5169009 335.053163,26.567274 C333.923215,26.4890378 332.775047,26.4877594 331.616928,26.5048432 C330.984225,26.835703 333.083733,26.4945967 332.920076,26.8600793 C332.212901,27.0476788 331.347528,26.9035864 331.111803,26.5794782 C331.164629,26.5824598 331.217454,26.5503318 331.270532,26.5104375 C330.312608,26.5270858 329.348459,26.5522751 328.38274,26.5530093 C328.406851,26.5757806 328.429789,26.5992075 328.451459,26.6233422 C328.617238,26.6699619 328.758745,26.7291047 328.758745,26.8608776 C328.713659,26.8709192 328.667988,26.8801252 328.621825,26.8885629 C328.671203,27.0070197 328.695022,27.1397681 328.687215,27.2902133 C328.210713,27.2571721 327.731404,27.2362702 327.249752,27.2240863 C327.39669,27.2587834 327.538618,27.3009003 327.67441,27.3498339 C327.178864,27.4488226 327.287821,27.4400414 327.314013,27.8391894 L326.952568,27.8391894 C326.749321,27.8391894 326.669698,27.7142561 326.590075,27.6308341 C326.730463,27.6100784 326.946282,27.6176622 326.952568,27.5270556 C326.104623,27.1247754 323.733715,27.4692456 322.344074,27.266581 C321.968114,27.2725524 321.591695,27.2769177 321.215023,27.2781517 C321.286165,27.3119782 321.33582,27.3569256 321.343362,27.4236763 C321.032206,27.4611962 320.879246,27.2855711 320.801719,27.4236763 C322.039013,27.705874 324.231779,27.522665 325.504693,27.7038782 C324.647702,27.7218399 325.372687,28.1772678 325.688035,28.1720789 C325.233348,28.3512964 324.815329,28.7057398 324.782851,28.3588802 C324.005483,28.6510565 323.556034,28.6554472 322.79438,28.8278791 C322.796476,28.9520142 323.110776,28.9140951 323.156873,29.0146804 C322.877146,29.1691507 322.314549,29.0561918 322.072538,28.9212798 C322.356456,28.9128977 322.796476,28.9336534 322.709519,28.7340793 C322.361694,28.4347183 321.539276,28.4223447 321.539276,28.3592793 L321.539276,28.641477 C319.443943,28.6542497 317.584336,28.5824031 315.476431,29.0170753 C315.793874,29.0713594 316.490572,28.902919 316.513621,29.1096776 C315.882926,29.1384163 316.505239,29.3631366 316.129127,29.391077 C315.93007,29.1539831 313.987697,29.4505501 315.031173,29.1112742 C314.405082,29.0539163 313.802263,29.1477342 313.416722,29.2986393 C313.350899,29.4282105 313.284416,29.5548596 313.232093,29.6712862 C313.348338,29.5765498 313.461798,29.4738457 313.577012,29.6744721 C313.451521,29.7233221 313.30898,29.7634032 313.176028,29.808472 C313.157754,29.8594983 313.144091,29.9075123 313.136655,29.951719 C313.592006,29.9518089 313.594976,30.0036137 313.214519,30.1434711 C313.787593,30.1574413 314.306188,30.1454668 314.4801,29.9542749 C314.220279,29.9027848 314.039033,29.8085859 313.936361,29.674073 C314.989266,29.830539 317.789678,29.5826681 318.277891,29.95188 C318.599524,29.9007891 319.029068,29.903184 319.182027,29.7642804 C318.546093,29.8473032 318.992399,29.5223967 319.180979,29.4844777 C319.453372,29.6549139 319.374797,30.008559 319.724718,30.1394796 C320.277886,30.0201343 320.293601,29.6225829 321.350696,29.7638813 C320.738859,29.4533441 322.28731,29.1076819 322.796476,29.3894804 C322.504177,29.6393471 323.749852,29.8916087 323.883953,30.2316828 C323.937384,30.04089 324.244351,29.9822153 324.425597,29.8572819 C324.978765,29.7898259 324.956764,30.0181386 325.509931,29.9506826 C325.625175,30.5861263 326.443402,30.0600491 326.597409,30.5122839 C326.597409,30.4188832 326.743035,30.4005224 326.77656,30.3250834 C326.854087,30.0668347 326.102911,30.23767 326.05367,30.0440832 C327.050001,29.9566698 326.972474,29.7834395 327.318204,29.4832802 C328.250627,29.2553667 328.382633,29.9215448 328.765031,29.6696823 C328.213958,29.5307788 327.690125,29.0522003 328.583785,28.9204815 C329.12019,29.3830941 330.563874,28.7416631 331.657638,29.1072828 C330.798551,29.3176338 329.325532,29.2114604 328.402538,29.3886821 C329.020661,29.5060316 329.77079,29.5543286 330.392057,29.6692832 C329.498397,29.9933914 328.627787,30.2572283 327.681744,30.3246843 C327.794892,30.5166745 328.595309,30.3514272 328.404634,30.6982869 C327.854609,30.5039018 327.119147,30.8878822 326.77656,30.5122839 C326.719986,31.070692 326.123864,30.3418477 325.602126,30.7936832 C326.155294,30.7880952 325.729941,31.130165 326.777608,31.0738852 L326.777608,30.7936832 C327.825274,31.070692 328.411967,30.6934971 329.219718,31.073486 C328.69798,31.2083981 328.47797,31.5245233 328.091381,31.7288871 C328.947325,31.7979397 329.311913,31.6227137 330.056803,31.6354865 C330.04947,31.763613 330.131188,31.8410477 330.227573,31.9160875 C329.527732,31.7073331 328.929514,31.9045122 327.955185,32.0011061 C328.717886,32.3371887 330.11652,31.9779555 330.578541,32.3387853 C330.438154,32.3603393 330.36796,32.4401689 330.397295,32.5487372 C329.653452,32.4832769 328.899132,32.6393438 329.31296,32.3727129 C327.893372,32.2066673 327.138005,32.5555227 326.240155,32.1958903 C326.795418,31.9903291 327.83156,32.2298179 327.142196,31.8306699 L327.504688,31.8306699 C327.515165,31.8306699 327.53088,31.8099142 327.684887,31.8266784 C327.740413,31.8805634 327.807464,31.9228731 327.877657,31.9611913 C327.948899,31.3868172 326.505215,32.0597808 326.241203,31.7292863 C326.653983,31.7544326 326.92009,31.7065348 326.963045,31.5416867 C325.900711,31.5229267 325.298303,31.7408615 324.431883,31.8238843 C325.039529,31.7947465 326.464356,31.8238843 326.058909,32.0102865 C325.827374,32.0050976 325.808516,31.8901429 325.51517,31.9164867 C325.48374,32.2222341 325.94157,32.3679231 325.15582,32.3846873 C324.818472,32.1695465 325.617841,32.0837297 325.153725,31.9168858 C324.806947,32.1583704 324.626749,32.04142 324.071486,32.2912867 C324.173109,32.2777157 324.41093,32.2801106 324.589033,32.2936816 C324.606843,32.2589557 324.685418,32.2302171 324.899142,32.2170452 C324.927429,32.3276092 324.867712,32.4828778 325.079341,32.4988437 C325.388402,32.4932556 325.541361,32.5706903 325.618889,32.685645 C325.552886,32.6744688 325.462787,32.6760654 325.37164,32.6784603 C325.496312,32.7203709 325.608412,32.7750541 325.700607,32.8524889 C325.376878,32.9666452 324.647702,32.8700514 324.435026,33.0392901 C326.195105,33.0273157 327.046858,32.5694929 328.592166,32.8520897 C328.327106,32.9339151 328.018045,32.9925898 328.049475,33.2264906 C328.351203,33.2037391 328.642454,33.1961553 328.923228,33.1977519 C328.714743,33.041685 329.065711,33.0305089 328.771317,32.8520897 C329.139048,32.9993753 330.030612,32.9917915 329.675453,33.0384918 C329.651357,33.1937604 329.201908,33.1275019 329.021709,33.2005459 C329.300388,33.2045374 329.567543,33.2197051 329.828412,33.2392633 C330.229668,33.1877732 330.629877,33.1402746 331.033228,33.0644365 C331.067801,33.1083428 331.10866,33.1482576 331.150567,33.1873741 C331.429246,32.8217545 330.944177,33.0911794 330.759788,32.9454903 C331.02799,32.8967943 331.215522,32.806986 331.483725,32.7582899 C331.356957,32.9981779 331.720498,32.9842077 331.914316,33.0588484 C332.133278,33.0257191 332.377384,33.0460757 332.619395,33.0664322 C332.767116,32.9011849 333.15161,32.766672 333.289902,32.9450912 C333.130656,33.0025685 333.373715,32.9279278 333.625155,32.9007858 C333.667062,32.8648624 333.713159,32.8377204 333.746684,32.7870286 C333.935264,32.7874277 334.124892,32.7974064 334.314519,32.8073851 C334.27366,32.7902218 334.244326,32.7686678 334.19299,32.7578908 C335.60734,32.8991892 336.314514,32.6573055 337.445994,32.9442929 C337.21446,32.9263312 337.115979,32.9774222 337.052072,33.0460757 C337.349609,33.0684279 337.652384,33.0812007 337.958303,33.0867888 C338.023258,33.0364961 338.037926,32.9598597 338.169932,32.9442929 C338.176218,33.0241225 338.263174,33.0620416 338.36794,33.0907802 C338.660239,33.0863896 338.957777,33.071222 339.260552,33.0412859 C339.259505,33.0396893 339.256362,33.0384918 339.255314,33.0372944 C339.421893,32.9965813 339.54866,32.985006 339.661808,32.9862034 C339.854579,32.9586622 340.046302,32.9355116 340.244311,32.8940003 C340.454892,32.9854052 340.687474,33.0185344 340.922151,33.052462 C341.238546,33.0329038 341.568561,33.0883853 341.845145,33.125107 C341.747712,33.0768101 341.648184,33.0177361 341.6859,32.8975926 C342.164683,32.9007858 342.750329,32.8476991 342.767091,33.0867888 C342.591083,33.0991623 342.365835,33.084793 342.271545,33.138678 C342.288308,33.1354848 342.311357,33.1362831 342.326024,33.1314933 C342.28726,33.1366823 342.268402,33.1530473 342.241163,33.1646226 C342.236972,33.1706098 342.225448,33.1730047 342.223353,33.1801894 C343.836759,33.3725788 344.602603,33.1374806 345.87447,33.157438 C346.145815,33.1223129 346.40878,33.081999 346.66441,33.0420842 C346.681173,33.0053626 346.663363,32.9686409 346.559644,32.9087687 C346.92947,32.9063738 347.21653,32.9143568 347.469018,32.931121 C348.170954,32.8564803 348.806888,32.8800301 349.373675,33.2232974 C349.250051,33.2336752 349.143189,33.2652079 349.041565,33.3043244 C349.116997,33.332664 349.175666,33.3518231 349.25948,33.384154 C349.13376,33.3809609 349.255289,33.3821583 349.12014,33.3833558 C348.642404,33.6376131 347.730935,34.0698904 347.730935,33.788491 L347.730935,33.7844995 C347.730935,33.7781132 347.659693,33.7094597 347.462732,33.6918972 C347.45016,33.7306146 347.34225,33.7525677 347.345393,33.7844995 L347.269961,33.7852978 L347.249008,33.788491 C347.301391,34.2958082 349.154713,33.8950635 350.293526,33.8782993 C350.527156,34.0108165 350.191903,34.381625 349.741406,34.4402998 C349.893318,33.9808804 348.048377,34.3337272 347.208149,34.4406989 C347.099192,33.7936799 345.653412,34.5496663 345.03948,34.0666972 C345.486833,34.0810665 345.788561,34.0184003 345.94152,33.8790976 C345.869231,33.761349 345.708939,33.6883049 345.398829,33.6918972 C345.414544,34.1680808 344.164678,33.9884642 343.952002,34.3476974 C343.24378,33.8080493 342.102871,34.4387032 341.061491,34.1616944 C340.916913,34.3676548 340.700046,34.5340996 340.158402,34.5356962 C339.554946,33.7741217 341.144256,33.7298163 342.019058,33.4715675 C341.759236,33.4560007 341.50151,33.4516101 341.244832,33.4428288 C341.187211,33.4655803 341.129589,33.4883317 341.061491,33.5058942 C341.056252,33.4839411 341.055205,33.459593 341.053109,33.4356441 C340.903293,33.4308544 340.752429,33.4208757 340.601565,33.4184808 C340.624614,33.4408331 340.652901,33.4663785 340.700046,33.5058942 C340.508323,33.4807479 340.327077,33.4504126 340.155259,33.4152876 C339.59371,33.4140902 339.020637,33.4236697 338.424514,33.4472194 C338.442325,33.5198644 338.58795,33.6120676 338.711575,33.6930946 C338.396227,33.7006784 338.150026,33.6727381 337.989733,33.599694 C337.994971,33.6120676 337.985542,33.613265 337.988685,33.624042 C338.060974,33.6675492 338.095547,33.7302154 338.066213,33.8252126 C337.197697,33.5414184 335.73725,33.8216203 336.266322,33.4468203 C335.923735,33.4575973 335.703725,33.5330363 335.603149,33.6711415 C335.676486,33.7090606 335.744584,33.7501728 335.820016,33.7872936 C336.133268,33.624042 336.937876,33.6839142 337.085597,33.8802951 C336.558621,33.8547496 336.464331,33.9034457 336.7252,34.0678946 C336.097648,33.9633179 335.547623,33.9349784 335.047886,33.8942653 C334.524053,33.871913 333.965647,33.8595394 333.377906,33.8563462 C332.920076,33.9613221 332.332335,33.9537383 331.848313,33.8587411 C331.649256,33.8607368 331.452295,33.8615351 331.251143,33.86393 C331.109708,34.0060267 330.719976,34.0195977 330.581684,34.163291 C331.256381,34.1537115 331.097136,34.0583151 331.664971,34.1628919 C331.663924,34.6434661 330.812171,34.1976178 330.581684,34.6306934 C330.015944,34.6757971 330.103948,34.378831 329.677548,34.3500923 C329.330771,34.5724178 328.762935,34.5225243 328.413015,34.300598 C328.470637,34.4271279 328.671789,34.6247062 328.595309,34.6247062 L328.233864,34.6247062 C328.092429,34.6247062 327.87661,34.6722048 327.872419,34.581199 C328.013854,34.5608425 328.080905,34.5281123 328.05157,34.4187458 C327.730984,34.4750257 327.300393,34.1573038 327.148482,34.4315185 C327.828417,34.5923752 327.320299,34.8889422 327.873467,34.999107 C329.141143,35.2250248 330.266337,34.6610286 332.389956,34.9081013 C331.628303,34.8925345 332.393099,35.052992 332.389956,35.190299 C331.631446,35.206664 330.47587,35.5060251 330.041088,35.3782977 C330.278909,35.3774994 330.271575,35.1196497 330.040041,35.0984949 C328.989231,35.5635024 327.051049,35.0290431 326.248536,35.7542951 C326.303015,35.5363603 326.63303,35.3515548 326.06729,35.2864936 C324.714808,35.4106592 322.781484,35.4491313 320.705005,35.4650661 C320.496762,35.5822007 320.190693,35.6916837 319.760446,35.791454 C318.689844,35.6271237 317.622835,35.5027348 316.663605,35.9980081 C316.182194,36.2462153 316.726476,36.9149484 315.707968,36.9486133 C318.639548,36.6861413 319.1012,38.660958 321.032234,39.297738 C321.169652,39.3428147 321.527118,39.1191429 321.783092,39.0204306 C323.432106,39.403868 322.348032,40.1188189 322.29055,40.709381 C321.620526,42.2494071 325.091898,41.9138994 324.872748,43.3951545 C321.48221,43.0299761 317.861745,43.3597779 314.385882,42.7686452 C314.263733,43.0014465 314.117334,43.2371007 314.095778,43.4579196 C313.330549,45.2181939 317.298601,44.8347565 317.048914,46.5277011 C312.813212,46.0717986 308.261359,46.5807661 303.957397,45.6084784 C302.133243,45.1965115 300.358487,45.0572872 298.459786,45.0110693 C280.691573,44.578561 262.926053,45.8892094 245.181192,45.2238999 C224.804428,44.4597223 204.418431,43.8295821 184.028496,43.2609319 C183.889893,43.3395973 183.758701,43.423034 183.702007,43.5540471 C183.626575,43.7492305 184.16717,43.6382673 184.186028,43.7871495 C184.030974,43.7963299 184.10012,43.8641851 184.171361,43.9304437 C183.70515,43.9883201 183.441138,44.176718 183.113218,44.3232054 C183.890586,44.1407947 183.577334,44.6034073 184.223744,44.6505068 C184.174504,44.3854725 185.167692,44.3930563 185.382463,44.5499214 C184.914156,44.7594742 184.328511,44.5535138 184.203839,44.8660467 C184.57157,44.8468876 185.142548,44.8552697 185.195979,45.11751 C184.527568,45.0979517 184.284509,45.3490158 183.885348,45.5002929 C184.148312,45.5585686 185.822483,45.144652 186.055065,45.4368284 C185.173978,45.5633583 184.763293,45.8463543 184.57157,46.2439057 C184.197553,46.3313192 183.94716,46.0247735 183.810964,46.2167637 C184.426992,46.1860293 183.364658,46.5799884 183.288178,46.3408987 C183.647528,46.3592595 183.561619,45.9824638 183.198079,45.9788714 C183.437995,46.1297494 183.122647,46.3181473 183.019976,46.4750125 C182.154603,46.4542568 181.378283,46.3879982 180.884832,46.1804412 C181.281897,46.2303347 181.398188,46.0431343 181.646485,46.2087807 C182.048789,45.9146086 181.869638,45.7030601 182.481475,45.5210486 C181.926212,45.4531935 181.959737,45.513864 181.607722,45.3458226 C181.510289,45.4982972 181.944022,45.5861098 181.458953,45.5553754 C181.135224,45.2168978 180.332712,45.3669775 179.928312,45.5701438 C179.275616,45.4232574 177.100661,44.8728322 177.012657,45.4635713 C176.837697,45.459979 176.736073,45.419665 176.63864,45.3777545 C176.214335,45.2859504 176.993799,45.3685741 176.787409,45.1682018 C176.660641,45.1630128 176.641783,45.1043381 176.540159,45.0867756 C176.395581,45.1793779 176.018422,45.5082759 175.878034,45.3506124 C175.637071,45.0165255 173.614027,44.9845937 172.892185,44.6648761 C172.789514,44.8337157 171.989097,44.9482712 171.856043,44.842497 C171.957667,44.8381063 172.264633,44.6205707 172.004812,44.6325451 C171.699941,44.5279683 171.456882,44.8233379 171.369926,44.6093945 C171.441167,44.6121885 171.52079,44.556707 171.376212,44.537947 C170.888,44.5818533 170.812568,44.8899956 170.556937,45.0819858 C170.469981,45.2895428 171.153059,45.4575841 170.759137,45.592097 C170.477314,45.3569988 169.269355,45.7960616 168.930959,46.0279667 C169.446411,46.091032 169.816237,46.5029528 170.431217,46.2989882 C170.60513,46.6099245 170.785328,46.6550282 171.281922,46.6901533 C171.060864,46.5548421 171.337448,46.4694244 171.564792,46.4127454 C171.396118,46.7372527 171.561649,46.8294559 171.670606,46.6330751 C171.641272,46.9663637 172.208059,46.6857626 172.148342,46.9376251 C171.483074,47.0745328 171.401356,46.7160979 170.878571,46.8909247 C171.490408,47.2150329 172.4815,47.0286308 172.71513,47.6046014 C173.464211,47.6373316 173.704127,47.5922278 174.125289,47.5131965 C173.749176,47.7379169 174.770651,47.6884225 174.864941,47.7558785 C174.961326,48.0460592 174.464732,47.9578475 174.56007,48.2476289 C174.280343,48.2061175 173.889564,48.0584328 173.791083,48.2919344 C174.482543,48.4368251 175.012662,48.2508221 175.559544,48.428443 C175.289246,48.5250368 176.003754,48.700662 176.157761,48.8096294 C176.002707,48.8184106 176.071853,48.8870641 176.142046,48.9529235 C175.854986,48.9724818 175.724027,49.091827 175.486207,49.1445146 C176.012136,49.2594692 175.347915,49.3069678 175.321723,49.4973615 C175.404489,49.6151101 175.946133,49.504147 175.808888,49.7316614 C175.553258,49.792731 174.823034,49.9404158 174.792652,49.6941414 C175.450586,49.6885534 174.926753,49.2059834 174.60512,49.0403369 C174.216435,49.3903898 173.156197,49.0219761 172.895328,49.5520447 C172.779037,49.4514594 172.709891,49.3281227 172.545408,49.2514863 C171.928332,49.3560631 171.50298,49.4438756 171.850805,49.8015123 C171.535457,49.7779625 171.442215,49.8957112 171.321733,49.997494 C171.479931,50.075727 172.295015,50.1116503 172.351589,49.8917197 C172.667985,49.9104797 172.730845,50.0406019 172.986475,49.9144712 C173.169817,50.0497824 173.306013,50.207845 173.450591,50.3635127 C174.103288,50.2409743 174.069762,50.4976265 174.592548,50.4054233 L174.540164,50.9055558 C174.215388,50.9873811 174.035189,50.6764448 173.905279,50.8832035 C174.292915,50.9873811 174.545403,51.2915319 174.22796,51.4699511 C174.407111,51.5593603 174.539117,51.56415 174.73503,51.4887111 C174.481495,51.6571515 174.320154,51.8862625 174.676361,52.0610894 C174.344251,52.0287584 174.126336,52.0678749 174.145194,52.257071 C173.904231,52.2646549 173.874896,52.1660653 173.64441,52.1668636 C173.642314,52.2921961 173.594122,52.3879916 173.489355,52.4478638 C173.904231,52.51053 173.928327,52.807097 174.183958,53.1212266 C174.08443,53.133201 174.029951,53.1755107 174.042523,53.2593318 C173.565835,53.0437918 173.432781,53.472876 173.161435,53.1559524 C172.894281,53.448528 173.025239,53.5219712 173.101719,53.7279316 C173.279822,53.6417156 173.583645,53.650896 173.601455,53.818139 C173.112195,53.7786234 172.67008,53.7546745 172.364161,53.4844513 C172.208059,53.5459201 171.543839,53.6652653 171.945095,53.8293152 C171.97862,53.7746319 171.961858,53.6876176 172.085482,53.6900125 C171.888521,54.0105284 171.406594,54.0476492 171.04934,53.8680325 C171.12582,54.1570157 170.243685,54.0324815 170.621892,54.2827474 C170.154633,54.3346366 170.549603,53.95824 170.145204,53.9777983 C169.577369,54.2460257 168.27512,54.1917416 167.123734,53.9574417 C167.093352,54.0101293 167.04935,54.0540355 166.994871,54.0911563 C166.582091,54.0939503 166.397702,53.9821889 166.397702,53.7806191 C166.398749,53.7810183 166.399797,53.7810183 166.400845,53.7810183 C166.381987,53.7754302 166.361033,53.7710396 166.342175,53.7654515 C166.411321,53.7870055 166.618759,53.7462924 166.604092,53.7023861 C165.472612,53.6660636 164.051977,54.2751636 163.303943,53.5814443 C162.981262,53.6640679 163.510333,53.8061646 163.146793,53.8620453 C163.152031,53.7897995 162.933069,53.7634558 162.891162,53.8528649 C162.990691,53.8716249 163.033645,53.9187243 163.00431,54.001348 C163.33223,53.9758025 163.509286,53.8975695 163.497761,54.163003 C161.773302,54.1937374 159.628729,54.1705868 158.142091,54.1801663 C157.804742,54.1821621 157.47368,53.9506562 157.247384,54.2184845 C157.223287,54.076787 157.432821,54.0835725 157.521872,54.0137216 C157.303958,53.9406775 157.170904,53.826122 156.911083,53.7750311 C156.683739,54.055233 155.716743,53.8995652 155.133193,53.7087725 C153.595219,53.9330937 152.48155,53.3890549 151.435979,53.7159571 C150.498317,53.4477297 148.173546,53.9522528 147.135308,53.4126046 C146.979206,53.4142012 146.832533,53.4225833 146.866058,53.5463192 C146.336987,53.58344 146.663858,53.1938715 146.134787,53.2305931 C145.843536,53.197863 145.972399,53.432562 145.731435,53.4313646 C145.391992,53.2485548 145.079787,53.254542 145.2537,53.1264155 C144.911113,53.1878843 144.794822,53.394643 144.453282,53.4553135 C144.248988,53.1012692 143.705249,53.4281714 143.43076,53.4888419 C141.821545,53.1882834 139.561728,53.2980491 137.516684,52.7639891 C137.930512,52.7216794 138.725691,52.7995132 138.181952,52.5013496 C138.671212,52.8617803 139.408769,52.6913441 139.778595,53.0649467 C140.221758,52.8330417 140.998079,53.0054736 141.421336,53.1982621 C141.801639,53.0801143 141.830974,53.0968785 142.319186,53.1599439 C142.294042,53.0174481 142.504623,53.0238344 142.59577,52.9539835 C141.885452,52.4965599 140.877597,52.7871396 139.705259,52.5584278 C141.130085,52.3253254 141.914787,52.4574434 143.275706,52.5488483 C143.257895,52.3843993 143.334375,52.2814191 143.559623,52.2722387 C144.093933,52.7536112 146.431277,52.5747929 146.994921,52.3289177 C147.879151,52.5193113 148.759191,52.8653727 149.399315,52.4905726 C149.225403,52.6594123 150.931003,53.0066711 151.042056,52.6230898 C151.05358,52.5041437 150.694231,52.5700031 150.676421,52.4662246 C151.023198,52.3816052 151.639226,52.7408385 151.960859,52.3692316 C152.3244,52.9448031 154.109623,52.3305143 154.835656,52.9072832 C155.180338,52.825857 155.249484,52.6865543 155.134241,52.4865812 C155.680075,52.6650003 155.813129,52.6246864 156.627165,52.8306468 C157.254717,52.1217599 159.704161,53.0006838 160.368382,52.3931805 C158.846123,52.2203494 155.994375,52.1604772 154.07505,51.6575507 C154.806321,51.8132184 155.622453,51.4436073 156.09076,51.8750864 C156.013233,51.4436073 157.072424,51.7397752 157.15938,51.4128729 C156.127428,51.5134582 154.288774,51.0233044 153.827801,51.5753262 C153.831992,51.3242621 154.28144,51.3565931 154.380969,51.1654011 C153.423402,51.0484508 152.762324,51.6347992 151.843521,51.0712022 C151.960859,51.3015106 151.883332,51.2631924 151.679037,51.4252465 C150.632419,51.2839481 149.382553,51.3518033 148.751857,51.3881257 C148.32441,51.4124738 147.871818,51.6483703 147.451704,51.6280137 C147.070353,51.6076572 146.836723,51.4503928 146.45223,51.4464014 C146.160979,51.4436073 145.17722,51.6551558 145.54076,51.6280137 C144.989688,51.6699243 144.221748,51.7641232 143.771252,51.4887111 C143.793253,51.8104244 142.675393,51.399701 142.723585,51.7373803 C142.262612,51.6966672 142.242706,51.4344269 141.604678,51.4803289 C141.461147,51.6687268 141.250566,51.8144159 140.805308,51.8092269 C139.812121,51.6651345 138.873412,51.3274552 137.393059,51.537008 C137.381535,51.4523886 137.438109,51.3354382 137.28934,51.3182748 C136.242721,51.2532137 135.368968,50.8021764 134.743511,51.2955234 C134.33073,50.8672375 133.730417,51.2500205 133.220204,51.2380461 C132.932096,51.2308614 132.476361,51.1202974 132.068819,51.0560346 C131.59213,51.1725858 131.160492,51.3190731 130.809524,51.4731443 C130.415601,51.5122608 130.589514,51.2679822 130.195591,51.3059013 C130.227021,51.4807281 129.946247,51.4539852 130.03006,51.6599456 C129.657091,51.5417977 129.17726,51.5537722 129.004395,51.7641232 C128.253218,51.4807281 128.266838,51.9098122 127.49785,51.6347992 L127.472706,51.8491417 C126.320273,51.7924627 125.45071,52.1473053 124.448094,52.1321377 C124.834683,52.3692316 124.890209,51.954916 125.186699,52.4458681 C124.445998,52.4287047 123.498908,52.4658255 122.772875,52.4291038 C122.938407,52.4318979 123.072508,52.4139362 123.131177,52.3476776 C122.697443,52.3293168 122.447051,52.2886037 122.206088,52.5117275 C120.071991,52.2941918 118.272101,52.9743401 116.007046,52.4183269 C115.92428,52.5189122 115.791227,52.585969 115.604742,52.6186992 C114.763466,52.367635 112.960432,52.4199234 112.09506,52.2714404 C112.037438,52.2287315 111.989246,52.1808338 111.940005,52.1345326 C111.470651,52.1245539 110.991867,52.1065922 110.434509,52.103399 C110.437652,52.0119941 110.283645,51.9988223 110.33079,51.8834685 C110.868243,51.9517228 111.349121,51.9752725 111.785998,51.9856504 C111.73571,51.9313662 111.685422,51.8770821 111.636182,51.8223988 C111.281023,51.8100252 111.915909,52.0295567 111.367979,51.9565126 C110.881862,51.8730906 111.814285,51.7090408 111.398362,51.6695251 C111.30512,51.7629258 111.114444,51.7928619 110.878719,51.7936602 C110.996058,51.4863162 110.312979,51.5797168 109.891818,51.5417977 C109.418272,51.1087221 108.390512,50.9518569 107.728387,50.6141777 C107.429802,50.6181692 107.211887,50.6457104 107.387895,50.8380997 C106.670244,50.8552631 106.790725,50.4573125 106.157935,50.4325653 C105.856207,50.4421449 105.893923,50.6712559 105.498953,50.6225598 C105.408853,50.464098 105.215035,50.3567272 104.761396,50.3786803 C104.700631,50.4792656 104.594817,50.4940341 104.737299,50.5938211 C103.127036,50.1958705 102.813784,50.6764448 101.286286,50.6784405 C101.341813,50.4928367 101.368004,50.3220013 100.937413,50.3774829 C101.063133,50.6405215 99.9578454,50.6995954 99.4843002,50.8249279 C99.4182972,50.5527089 100.164236,50.8017773 100.03223,50.4868495 C99.5817332,50.5570995 99.4444889,50.685226 99.2800053,50.3866633 C99.1155217,50.5303566 99.3082923,50.6576848 98.8577957,50.7291323 C98.9059884,50.525966 98.9175127,50.339963 98.5173042,50.3567272 C98.6000698,50.5634859 98.3171999,50.5363438 98.3507252,50.7099732 C96.4858791,50.2082441 93.8572843,50.7015911 91.2569764,50.2964558 C90.1674035,50.3531349 88.529901,50.590628 87.5283319,50.2848806 C87.42147,50.2745027 87.3167033,50.2701121 87.2087937,50.256541 C87.1972694,50.399436 87.5450946,50.3607187 87.4319466,50.5523097 C87.1071701,50.5155881 86.8232525,50.4026292 86.7027709,50.2669189 C85.5230986,50.3271902 84.5676269,50.1407881 83.2496626,50.0601602 C82.9605067,50.2162271 82.6797321,50.2976533 82.3434312,50.1691276 C82.5414402,50.1595481 82.3748612,50.0517781 82.2334263,50.0214428 C82.0155117,50.1124486 81.8070261,50.2082441 81.5660628,50.2824857 C81.4927262,50.1830978 81.3093846,50.1391915 81.0747073,50.1200324 C80.5969715,50.6979988 79.8594143,49.6614113 78.899752,50.1799046 C77.5702634,49.5692081 74.7782326,50.3148167 73.7515196,49.4786015 C74.2931631,49.3955787 74.3256407,49.9084839 74.7509933,49.6614113 C73.9621005,48.8794803 72.7625226,49.3269252 71.2612167,48.9509278 C71.266455,48.8515399 71.338744,48.7968566 71.414176,48.7413751 C70.9165345,48.5210453 69.7190519,48.5086718 69.3659883,48.806037 C68.6315742,48.3258619 66.8159684,48.7653239 65.6928701,48.592892 C65.6059138,48.8702999 65.3471402,48.8239987 65.3115196,48.5781235 C65.1805613,48.6986662 65.2256109,48.9337644 65.0076963,48.9976281 C64.6881581,48.5262343 63.2989525,49.145712 62.8819813,48.628017 C62.2146179,49.0076068 61.2591462,48.7405768 60.5540667,48.8962445 C60.3633914,48.5493849 59.2256258,48.5857073 58.6735056,48.6056647 C58.6609336,48.4695552 58.8337986,48.4539885 58.8337986,48.3246645 C58.4189227,48.371764 58.593883,48.129082 58.3518721,48.0899655 C57.6247916,47.9562509 57.573456,48.307102 57.0737191,48.1123177 C57.2340121,48.1302794 57.1847718,48.5549729 57.0475275,48.3266602 C57.0988631,47.8377039 55.9202385,47.7191569 55.1942057,47.8233346 C55.3178304,47.5303599 54.7395185,47.8804127 54.5760826,47.6552932 C54.6085602,47.4453414 54.8977162,47.4002376 55.1261074,47.3160174 C55.1774431,47.4026325 55.2413507,47.484857 55.3544987,47.5411369 C55.8709982,47.4385558 56.1685354,47.1930798 56.6839873,47.0904988 C56.3476864,47.0761294 55.9317628,47.1008766 55.9390965,46.9172685 C57.0978155,46.9683594 57.3649704,47.0410044 58.4702584,47.0877047 C58.4367331,46.8617869 58.8337986,46.9124787 58.8935156,46.7448365 C59.3356308,46.7979232 59.4833517,46.9939049 59.8762266,47.0717388 C60.3874878,46.7468323 61.6698314,47.0250385 62.4754868,46.6701959 C62.977319,46.7931335 63.6163954,47.1403923 63.8699307,46.72448 C64.2732822,46.7065183 64.1842306,46.9304404 64.4817678,46.964368 C64.7373984,46.9244532 64.4953875,46.5636233 64.7845434,46.5444642 C64.8065444,46.7436391 65.1543696,46.6418563 65.3848562,46.8557997 C65.6331531,46.6051347 66.2952783,46.6218989 66.4681432,46.3221388 C66.1098413,46.2259441 65.1742753,46.0642891 65.6394391,45.7872804 C66.2900399,46.6175083 68.30575,46.435896 68.6996725,45.7609366 C69.1480737,45.7856838 68.4031829,45.9872536 68.8023438,45.9796697 C69.1836944,45.8934538 69.5021849,45.7641298 69.5032326,45.4320386 L68.9961621,45.4120812 C68.9710181,44.7139713 69.8206755,44.8840084 70.5928056,44.8273293 C70.1852634,44.2186286 69.150169,44.5371487 67.9464004,44.5814541 C67.7672495,44.3283943 67.9851641,44.3663133 68.2407947,44.2329979 C67.3984709,43.8230729 66.082602,44.5599001 65.3408542,43.9779423 C65.6677261,43.9599806 66.0344093,43.9088897 66.5069069,43.8063086 C64.2366139,43.7863512 63.1596129,43.9332377 60.8987489,43.8039138 C60.9165593,43.9072931 61.0936149,43.9328386 61.1271402,44.0286341 C60.5917827,43.9767449 60.4650151,43.7252816 59.8908939,43.6925514 C59.8615593,43.7759734 59.8887986,43.896117 59.7379346,43.901705 C59.718029,43.7895444 59.4665891,43.842232 59.3586794,43.8877348 C59.2748661,43.6530358 59.7882226,43.8051112 59.7725076,43.6163142 C59.0705712,43.3081719 58.1821501,43.5352871 57.2465841,43.3452926 C56.9605712,43.5129348 56.6546526,43.6686026 56.2953031,43.7903427 C56.8746625,43.8414337 57.0852435,43.6558298 57.0841958,43.5316948 C57.2224878,43.7616041 57.7012713,43.3979802 57.7012713,43.6985387 C57.3723041,43.8446269 56.8537092,43.8677774 56.7657052,44.1671385 C56.6305563,44.3926571 57.0779098,44.3271968 57.1145781,44.4672978 C56.5456953,44.6046047 55.7536596,44.8540723 55.8961422,45.2129063 C55.5022196,45.2512246 55.6740369,45.0073451 55.2801144,45.0460625 C55.0779148,45.2903411 55.5881283,45.5174563 55.2214451,45.6192391 C55.0202931,45.4703568 54.9626715,45.2504263 54.6337042,45.1658069 C54.5928453,45.2671905 54.411599,45.2787658 54.358168,45.3713681 C54.430457,45.5162589 55.1166784,45.3554022 54.9679098,45.6096595 C54.6714202,45.6743215 54.4975076,45.8168173 54.0616784,45.7920702 C54.1570161,45.5908995 54.5666536,45.4456097 53.9789128,45.3565996 C53.7264252,45.4751466 53.5567032,45.645982 53.3042157,45.7637307 C53.6572792,45.3673766 53.6436596,44.9742158 53.293739,44.6129868 C53.6740419,44.6540991 53.5797519,44.3894639 53.7096625,44.2701187 C53.4728899,44.2286073 52.9375324,44.3387721 53.0915394,44.1032748 C53.5577509,44.0585702 53.4309833,44.109262 53.7463309,43.9120829 C53.5881332,44.3108318 54.3749307,44.7957966 54.8327608,44.4549242 C54.6619912,44.3611244 54.5729396,44.17113 54.7426615,44.0924978 C55.1156308,44.0861114 55.1826814,44.3958503 55.3744043,44.1156484 C55.2444937,44.1072663 55.1826814,44.0916995 55.1502037,44.0725404 C55.1418224,44.0745361 55.1397271,44.0813216 55.1282028,44.0817208 C55.2057301,43.7061225 54.399027,43.7655955 53.7662365,43.7400501 C53.7704272,43.7320671 53.7651888,43.726479 53.7672842,43.7188952 C53.7243299,43.7304705 53.6803279,43.7440415 53.6352782,43.7635998 C53.4561273,43.7165003 53.3366933,43.6410614 53.2769763,43.5340897 C53.3073587,43.502557 53.356599,43.4822004 53.4089823,43.4638396 C53.1858294,43.4355001 52.9375324,43.4686294 52.8945781,43.5616309 C52.8055265,43.4043666 52.6117082,43.2965966 52.1591163,43.3173523 C51.6258542,43.6701992 52.4577013,43.6985387 52.4797022,43.8334507 C52.1402584,43.7759734 51.4624182,43.8849408 51.3461273,43.7168995 C52.1182574,43.6538341 50.7332425,43.5811891 51.3974629,43.2874162 C51.6614748,43.2790341 51.4854669,43.4546592 51.8793894,43.5221152 C51.9757747,43.2510937 51.7505265,43.1365382 51.4226069,43.0722754 C50.9658244,43.1449203 50.9260131,43.6047389 50.8390568,43.6969421 C50.5404719,43.5760002 49.9474927,43.8358456 49.5881432,43.5041536 C50.1832176,43.7168995 51.098878,43.4526635 50.7803874,43.1193749 C50.2576019,43.0798592 50.5781878,43.3907955 50.3655116,43.3911947 C50.1203577,43.2957983 49.2130786,43.119774 49.4519465,43.5704121 C49.2727956,43.5289007 49.1826963,43.481003 49.1261223,43.4295129 C48.963734,43.4662345 48.8023934,43.5045527 48.7039128,43.5811891 C48.7290568,43.5089433 48.7489624,43.4526635 48.7646774,43.40277 C48.6347668,43.4323069 48.6221948,43.5380812 48.4367578,43.5312956 C48.1748413,43.3149574 48.6934361,43.1405297 48.5059038,42.9585182 C48.2418919,42.9680977 48.2293199,43.1397314 48.0889326,43.2295397 C47.6394838,43.1592897 47.4812861,42.9453463 46.847448,42.9653037 C46.5404818,43.4398907 46.0543646,42.9369642 45.5263408,43.3452926 C45.5651044,43.1660752 45.795591,43.130551 45.4351938,43.0535154 C45.1711819,43.063095 45.2832822,43.3153565 45.0182226,43.3253352 C45.0590816,43.1477144 45.0842256,42.9784756 44.8086893,42.9577199 C44.797165,43.0004287 44.778307,43.0407427 44.6735404,43.0239785 C44.6703974,43.1377357 44.9899356,43.0926319 44.900884,43.2486988 C43.3356704,42.9756816 43.0129892,42.9329727 41.9475125,43.4207316 C41.7903626,43.1066021 41.0496625,43.1936164 40.6882176,43.2989915 C40.8244142,43.0750694 40.5153527,43.0694814 40.4776367,42.9313761 C41.0842355,43.0251759 40.7971749,42.7353944 40.7741262,42.583319 C41.2466238,42.4927124 41.4299654,42.6144526 41.9338929,42.4839312 C41.8794142,42.7134413 42.3655314,42.6771188 42.533158,42.7960649 C42.6389723,42.6340108 42.8862216,42.561765 43.0831829,42.4579865 C43.1114698,42.6292211 43.9841759,42.7278106 44.0816089,42.6407964 C43.9841759,42.4639738 43.1533765,42.6483802 43.3555761,42.3246711 C43.9192206,42.4883218 43.9035056,42.2440432 43.5074877,42.1155175 C44.0145582,42.1139209 44.3456208,42.1119252 44.6159187,42.1131226 C44.652587,42.0532504 44.68716,41.9897859 44.684017,41.9251239 C44.4283864,41.8939904 44.3613358,41.7686579 44.1999952,41.6916223 C44.0669415,41.4541292 44.614871,41.6521066 44.4807698,41.4142144 C44.2481878,41.3962527 44.0637985,41.3523465 43.9894142,41.2529586 C44.2094242,41.2449756 44.2481878,41.1212397 44.4063854,41.073342 C43.9873189,41.0893079 43.6059684,41.1144542 43.6457797,40.9699626 C44.2513308,41.0673548 44.7898313,40.8518148 45.0831779,41.0446033 C45.3042355,40.9452155 45.726445,40.9328419 45.7746377,41.1743264 C45.3712861,41.0797283 45.2392802,41.1938847 45.0444142,41.0861147 C44.9239326,41.0709471 44.787736,41.065359 44.643158,41.0673548 C44.5562017,41.3998451 44.7290667,41.5814574 45.0706059,41.8676466 C44.8579296,41.6193765 45.5546277,41.5822557 45.5912961,41.7427133 C45.4414798,41.7598766 44.9731729,41.9418881 45.3084262,42.0205203 C45.6070111,42.0077476 45.6143447,41.8085727 45.8416883,41.7514945 C45.855308,41.9243256 45.720159,42.0428726 45.5514847,42.1494451 C45.776733,42.1670076 46.0428403,42.1921539 46.4252385,42.2288756 C46.5100994,42.06283 46.1497022,41.9139478 46.3498065,41.7950016 C46.4095235,41.9287162 46.5530538,41.9618455 46.7343,41.9518668 C46.7269664,41.9434847 46.7196327,41.9370983 46.7122991,41.9279179 L46.894593,41.9347035 C47.0402186,41.9111537 47.1984162,41.8736338 47.3628998,41.8333199 C47.4236645,41.7020001 47.5881481,41.6529049 47.2560379,41.5878438 C46.979454,41.874033 46.8746873,41.4134161 46.5184808,41.3455609 C46.7343,41.2114472 46.8621153,41.1882966 47.0056456,41.1312184 C46.935452,41.111261 46.8935453,41.100484 46.944881,41.0992866 C46.9742156,41.0829215 47.0611719,41.0661573 47.1617479,41.0529854 C47.2099406,41.0242468 47.2612762,40.9911175 47.3199455,40.9444172 C46.9721203,40.9823362 47.4456655,40.609532 47.0967926,40.6478502 C46.8862117,40.6741939 46.8327807,41.181112 46.5624828,40.9164768 C46.910308,40.7787707 46.6599157,40.6163175 46.856877,40.4961739 C47.2591809,40.4742208 47.3576615,40.6833743 47.4980488,40.4470787 C47.1952732,40.1952163 46.4409535,40.534093 46.3592355,40.4051682 C46.5017181,40.3197505 46.6536297,40.2395217 46.7678254,40.1349449 C46.5394341,40.1257645 46.2984708,40.1133909 46.0334113,40.2008044 C46.0449356,40.1668768 46.0480786,40.1369407 46.0501739,40.1078029 C46.0124579,40.108202 45.9768373,40.1062063 45.940169,40.1062063 C45.7934957,40.2423158 45.757875,40.2562859 45.9726466,40.4630446 C45.4498611,40.25908 45.1942305,40.5213202 45.4310031,40.8027196 C44.7919267,40.4299153 44.1874232,40.9603831 43.1470905,40.7911443 C43.2591908,40.3872065 42.7573586,40.671799 42.6421153,40.7731827 C42.6546873,40.6450561 43.0245135,40.3684465 42.6924033,40.2714536 C42.530015,40.2690587 42.508014,40.3560729 42.3058144,40.3289309 C42.3037191,40.1457219 42.1057102,40.0615017 41.9737042,39.943753 C41.7379793,40.0503255 41.456157,40.1046097 41.2120508,40.0116082 C41.1785255,40.2063924 41.4069167,40.1644819 41.1795731,40.2977973 L40.9249902,40.2882178 C40.9249902,40.2742476 40.9187042,40.2634706 40.9134659,40.2514962 C40.9061322,40.3029863 40.8935602,40.3532789 40.8757499,40.4043699 C40.9323239,40.4135503 40.9815642,40.4414906 41.0255662,40.5085475 C40.9637539,40.5372862 40.8841312,40.5500589 40.8013656,40.5572436 C40.6819316,40.752427 40.4818273,40.9168759 40.2115294,40.9703618 C40.407443,41.1695367 41.2895781,41.3786902 40.9061322,41.6433254 C40.8055562,41.5179929 40.6976466,41.397051 40.3278204,41.4066306 C40.3875374,41.4613139 40.445159,41.5167955 40.5153527,41.566689 C40.4441113,41.5642941 40.3864897,41.5555128 40.335154,41.5435384 C40.4043,41.6616862 40.504876,41.7930059 40.2523884,41.8349164 C39.8375125,41.6732615 39.9391362,41.4565241 39.8804669,41.2529586 C39.8259882,41.2194302 39.7610329,41.1902924 39.6709336,41.1743264 C39.7474132,41.1743264 39.7977012,41.1878975 39.8574182,41.1966787 C39.8291312,41.1368065 39.7851292,41.0781318 39.6971252,41.0238476 C39.9265642,40.9667695 40.1507648,40.9068972 40.1130488,40.6809795 C39.7212216,40.7177011 39.6615046,40.5899737 39.3629197,40.5807933 C39.2602484,40.4151469 39.2036744,40.2263498 39.1502434,40.0359562 C38.1905811,39.8782927 37.3786396,40.0187928 36.9019515,39.8427686 C37.1460577,39.8447643 36.8338531,39.571747 36.8191858,39.4795438 C37.0308144,39.4875268 37.2005364,39.458389 37.3514003,39.4248606 C36.8726168,39.3338548 36.3686893,39.2855579 35.8951441,39.2879528 C35.6918968,39.407298 35.4111223,39.525845 35.179588,39.3430352 C35.3398809,39.3777611 35.4635056,39.3466275 35.5682722,39.2983306 C35.5075076,39.3023221 35.4383616,39.2987298 35.3796923,39.3043178 C34.2178303,39.4192725 33.3346476,39.493514 32.4598462,39.4999004 C32.9732027,39.6455894 33.6437091,39.6563664 33.7044738,39.9309803 C33.2592156,39.7757117 32.6442355,39.7026676 32.2943149,39.5002995 C31.7788631,39.4991021 31.2602682,39.4743549 30.6840517,39.418075 C30.3362265,39.3837483 29.9758293,39.2887511 29.5934311,39.1877666 C29.5923834,39.1889641 29.5913357,39.1897624 29.5892404,39.1909598 C29.4425671,39.1737964 29.2267479,39.1881658 29.2183665,39.1031472 C29.2298909,39.1027481 29.2340815,39.0983575 29.2445582,39.0975592 C28.8862563,39.00815 28.5059534,38.9291187 28.0973635,38.8967877 L28.0858392,38.986596 C28.2723238,39.0061543 28.5562414,38.9790122 28.5824331,39.0780009 C28.4493794,39.1227055 27.5986744,39.2548235 27.9412613,39.1247012 C28.2775622,39.1227055 27.9464996,38.9654412 27.9527856,38.8872081 C27.615437,38.8708431 27.2571351,38.8888047 26.8747369,38.9642437 C26.478719,38.7311413 25.4949604,38.808576 25.2351391,38.5028286 C22.327865,38.4349734 20.4410179,37.328535 18.0816733,36.6008881 C17.963287,36.5821282 17.8564251,36.5521921 17.7673734,36.5054918 C17.197443,36.3414419 16.5971301,36.2021392 15.9465293,36.107142 C15.8742404,35.6149925 14.876862,35.6133959 14.4378898,35.3156314 C14.1508292,35.3419752 13.8731977,35.3826883 13.6217577,35.4577281 C13.6647121,35.3459667 13.5777558,35.2856953 13.4373685,35.2537635 C13.2728848,35.2597507 13.1178302,35.2513686 12.9795383,35.2270206 C12.7972443,35.2338061 12.6159981,35.2529652 12.4986594,35.268532 C12.5499951,35.3559454 12.6139027,35.4365733 12.7249554,35.4932523 C12.5478997,35.2864936 13.2969812,35.3168289 13.2414549,35.4417622 C12.5405661,35.3727096 12.7490517,35.6632894 12.5625671,35.7750508 C12.2294092,35.3723105 12.1131182,35.5319697 12.3991311,35.0490005 C12.4567528,35.0537903 12.5374231,35.0625716 12.6243794,35.071752 C12.5688531,35.0222576 12.5279941,34.9591922 12.5028501,34.8817575 C12.4399901,34.8861481 12.3813208,34.8897405 12.2901738,34.9009166 C12.3467478,34.7620131 12.1382622,34.7516353 12.0638779,34.6765954 C12.3048412,34.6773937 12.1833119,34.4426947 12.4714201,34.4766222 C12.4525621,34.8079151 13.1744042,34.5947701 13.771574,34.6466593 C12.2891262,33.071222 8.4190467,32.761084 7.65320261,30.806456 C7.01622147,30.8587444 6.72077956,30.7302187 6.56048661,30.5294472 C6.41590866,29.4453611 4.13304371,28.5181402 4.49448859,27.4264703 C4.00418075,27.46878 3.58301888,27.5478113 3.209002,27.3382586 C3.53796923,27.3326705 4.12047171,27.2616222 4.53220458,27.3155072 C4.60868422,27.1622343 4.74488085,27.0045709 4.94288979,26.843315 C4.93869912,26.8393236 4.93241312,26.8381261 4.92822246,26.8337355 C4.93765146,26.8349329 4.94498512,26.8329372 4.95336645,26.8337355 C4.97117678,26.8197653 4.98165344,26.8061943 4.99946377,26.7922241 L4.71659386,26.7934215 C4.73335652,26.8337355 4.75430985,26.8716546 4.7930735,26.9007924 C4.25562067,26.9391106 4.21371402,26.7359442 3.79883814,26.7151885 C3.81560081,26.8185679 3.99160875,26.8441133 4.02408641,26.9399089 L3.77159882,26.929531 C3.75902682,26.9738365 3.74226416,27.0133521 3.63435453,26.9961887 C3.77683715,26.7710692 3.23205066,26.8812341 3.2928153,26.694832 C3.7286445,26.5471472 3.90150945,26.6293717 4.27552633,26.7016175 C4.273431,26.5231983 4.24619167,26.3759127 4.22733368,26.2477862 C3.90989078,26.2777223 3.45101292,26.3244226 3.10633069,26.182725 C3.26767131,26.1739438 3.83550647,26.080144 4.21790468,26.1791327 C4.19799902,25.9971212 4.22104768,25.8450458 4.42324728,25.6710172 C2.59402186,25.0116247 3.25928998,23.4377839 3.41539226,22.3988016 C3.45206059,22.1549221 3.37139028,21.8248267 3.37977161,21.5266631 C3.0906157,21.5530069 2.39601292,21.685524 2.4557299,21.4085153 C2.70612215,21.4552156 3.19223933,21.3877596 3.38186694,21.4651943 C3.41224927,21.0592607 3.64378353,20.7319593 4.63592355,20.8026085 C4.56992057,20.5850729 4.65268621,20.442577 4.80040716,20.3328113 C5.29385801,20.2633595 5.17232872,20.5172177 5.53272594,20.5164194 C5.63434957,20.0781548 5.79464252,19.6658349 5.99684212,19.2718758 C5.86797916,19.3050051 5.74435454,19.3058034 5.6521599,19.2383474 C5.95912614,19.2754681 6.01046179,19.145745 6.11837142,19.0523444 C6.40752733,18.5462246 6.77525821,18.0744317 7.21108741,17.6301799 C6.54372395,17.6481415 5.88683716,17.7199882 5.56520359,17.9407171 C5.55786993,17.8325479 5.64377857,17.6776785 5.47719962,17.6489398 C4.82974182,17.7423405 2.90936942,17.9019997 2.90936942,17.9019997 C2.84231878,17.8078008 3.03194638,17.6293816 2.81927012,17.6106216 C2.55944887,17.6724896 2.49658889,17.8648789 2.26924529,17.9479017 C1.67731381,17.4773062 0.792035752,18.1837982 -5.68434189e-14,17.8537028 C0.186484608,17.5048474 0.568882822,17.7642936 0.502879843,17.8736602 C0.733366437,17.8441232 1.03195134,17.8600892 1.15348064,17.7575081 C0.619170806,17.7479286 1.16919563,17.6477424 1.18071996,17.5427665 C1.00471202,17.4517607 0.873753727,17.4469709 0.675744789,17.5216116 C0.739652435,16.9584137 2.01780537,17.5124312 2.57621153,17.527998 C3.190144,17.5431656 2.95756207,17.00232 3.64902186,17.0693769 C3.66892752,17.2114736 3.46044192,17.2038898 3.37139028,17.2733415 C3.92455811,17.3866996 4.62335155,17.5567366 5.01832176,17.2701483 C4.59041662,17.2082296 4.93105774,16.9754748 5.28765535,16.9923422 C5.21027734,16.9093803 5.13698602,16.8161318 5.06825624,16.7114494 C6.1223206,16.7176322 7.19448065,16.1890501 8.23636673,16.7173269 C8.95772896,16.1572971 9.78890627,15.6401707 10.697488,15.1483172 C10.1973909,15.0856449 9.6973547,15.022697 9.19797599,14.9574516 C8.30341294,14.8410509 6.82684503,15.2844004 7.75643614,13.8647691 C8.16599513,13.2405422 5.39698121,12.8502577 5.06376546,11.6423158 C8.17048591,12.2174718 11.7649049,11.0140947 14.465659,12.7378512 C14.5096686,12.6870685 14.5545764,12.6368565 14.6012805,12.5866445 C15.5973351,10.3442204 17.9882255,9.43755072 21.5619869,9.60073985 C22.4017624,9.63896947 23.2424361,9.47121561 24.0489799,9.30631471 C24.3274082,9.26580272 24.5609287,9.19733176 24.7639118,9.11117246 C24.8833665,8.87038291 25.1438317,8.70719378 25.4833345,8.58851077 C25.5982985,8.45099826 25.693503,8.30093273 25.8363097,8.07669032 C25.1105999,7.7080883 24.4001588,7.25846231 24.2259166,6.62795885 C27.1772561,7.17458538 30.4806727,6.43053424 33.2442976,6.90926039 C33.4329103,6.81910696 33.6206249,6.65249428 33.8092375,6.65249428 C34.3750756,6.65192369 34.8466073,6.81568341 34.9822288,7.19341489 C34.9930067,7.22308564 34.7451158,7.28984483 34.5609938,7.34062746 C34.763977,7.41480434 34.9624694,7.50096364 35.1591655,7.59454062 C35.5489651,7.40624547 35.935172,7.1529029 36.3177863,6.82024814 C36.4444263,6.7106946 36.6150759,6.6245353 36.8027904,6.54921724 C38.3054048,4.68680703 40.972029,3.93077347 44.6607543,4.09909793 C45.7008186,4.1470276 46.741781,3.93876175 47.7414282,3.73449005 C48.08632,3.68427801 48.374628,3.59983048 48.6261116,3.4931299 C48.7752054,3.19471062 49.0967451,2.99272127 49.517082,2.8455087 C49.6598887,2.67490188 49.7784453,2.48945969 49.8736498,2.2908939 C51.0026315,0.948292417 52.834869,0.936309999 54.6715974,1.43386567 C57.721734,2.25951137 60.3775803,2.87746182 62.937324,0.655579048 C63.9908606,-0.259078908 67.1137478,-0.182619665 68.0487279,0.67326738 C68.3419408,0.941543797 68.6309389,1.13956456 68.9167864,1.28204353 Z M74.9091381,1.4487216 C74.9842547,1.50372055 75.0435411,1.56493777 75.0910643,1.63077058 C75.1172507,1.62178357 75.1386696,1.60669588 75.1491065,1.58442849 C75.0495782,1.56566853 75.0066239,1.51896821 75.0359585,1.43634456 C74.9907898,1.4398083 74.9484835,1.44427926 74.9091381,1.4487216 Z M95.7232323,2.31214977 C95.7708361,2.30700974 95.8183952,2.30168199 95.8659111,2.29617396 C95.8227084,2.29052318 95.7751286,2.28421032 95.7221304,2.27734949 C95.724278,2.29008504 95.7245615,2.30163163 95.7232323,2.31214977 Z M332.216611,24.5310807 C332.254874,24.6252968 332.315583,24.708174 332.393685,24.7824034 C332.45901,24.7321347 332.513867,24.6764961 332.555488,24.6140732 C332.45451,24.5801927 332.340659,24.552991 332.216611,24.5310807 Z M333.193118,25.2069492 C333.323995,25.2544567 333.45992,25.2998759 333.596041,25.3457915 C334.231593,25.3143979 334.693805,25.2663979 335.24799,25.4566747 C335.107603,25.4774304 334.903308,25.4582713 334.89807,25.5492771 C335.691153,25.4506875 335.49943,25.8665998 336.169936,25.8298782 C336.537667,25.3808366 336.342801,25.1413478 335.875542,25.0363718 C335.716297,25.1146049 335.403045,25.1189955 335.341232,24.9761005 C335.119127,24.9677184 334.878164,24.9725082 334.623581,24.9912681 C334.813209,24.9960579 334.964073,25.0164144 335.039505,25.0643122 C334.462374,25.061253 333.7987,25.1823878 333.193118,25.2069492 Z M316.209563,26.9771895 C315.983728,26.9431553 315.758134,26.9055305 315.532827,26.8639816 C315.406914,26.8407569 315.281342,26.8187753 315.156054,26.7979828 C315.09327,26.8128788 315.04229,26.8338221 315.010219,26.8644699 C315.304021,27.0025502 315.75927,27.0272748 316.209563,26.9771895 Z M311.95898,26.491334 C311.919029,26.4899324 311.879056,26.4886051 311.839058,26.4873504 C311.812459,26.5071551 311.783867,26.5249684 311.754072,26.5415591 C311.821471,26.5237472 311.889821,26.5070166 311.95898,26.491334 Z M303.788204,26.6215686 C301.905128,26.6843785 300.023507,26.7619666 298.142941,26.8497648 C297.955828,26.9753457 297.340034,26.880005 297.458665,27.1638309 C298.818536,26.8684614 301.329792,26.8149755 303.065776,26.7830437 C303.62942,26.7722667 304.63937,27.1793977 304.693849,26.6876473 C304.442393,26.6393662 303.822186,26.7829909 303.788204,26.6215686 Z M296.823074,26.9130118 C296.456214,26.9310272 296.089391,26.9493907 295.722601,26.9680682 C295.487551,27.0164606 295.149189,27.0208305 294.869952,27.0120397 C294.752617,27.0181647 294.635284,27.0243192 294.517955,27.030502 C294.86502,27.1920637 294.379884,27.3265097 294.533279,27.4295003 C294.536795,27.4296703 294.540311,27.4298396 294.543827,27.4300082 C294.628617,27.4339737 294.7134,27.4378767 294.798175,27.4417136 C295.04349,27.3874228 294.513867,27.1234493 295.288948,27.1658267 C295.274903,27.2996073 295.169997,27.3865658 295.022759,27.451722 C295.661547,27.479738 296.299931,27.5038278 296.937904,27.5225008 C297.370741,27.1416115 296.501495,27.3710307 296.372235,27.0704303 C296.524656,26.9883896 296.674298,26.9415799 296.823074,26.9130118 Z M296.943477,27.5226638 C297.239825,27.3406928 297.736175,27.4294913 297.833285,27.5450043 C297.536772,27.5388299 297.240169,27.5313331 296.943477,27.5226638 Z M298.883771,27.5611031 C298.949971,27.5617378 299.016167,27.5622976 299.082358,27.5627809 C299.020049,27.5314469 298.962125,27.4918998 298.908635,27.4424363 C299.261699,27.4867417 299.832677,27.1893764 299.450279,27.1618352 C299.340274,27.3234901 298.590145,27.1554488 298.545095,27.3494348 C298.547979,27.4771361 298.780984,27.4854199 298.883771,27.5611031 Z M300.410514,27.5617025 C301.175561,27.5545796 301.939996,27.5357174 302.70381,27.502527 C302.702809,27.4798565 302.703807,27.4582019 302.708521,27.4384448 C302.931353,27.4417895 303.137988,27.4535474 303.331846,27.4719468 C303.73551,27.4501418 304.138999,27.4241331 304.542312,27.3935379 C304.532957,27.377604 304.524437,27.3609197 304.516793,27.3434475 C304.978814,27.3322714 305.447121,27.3246876 305.419882,27.0612499 C304.589082,27.3155072 302.898149,27.1303025 301.683904,27.2009517 C301.649331,27.2157202 301.596947,27.2185142 301.527801,27.2101321 C301.310934,27.2276946 301.115021,27.255635 300.943204,27.2971464 C300.892916,27.4424363 300.662429,27.4671834 300.463372,27.5134846 C300.44474,27.5291013 300.426937,27.5450336 300.410514,27.5617025 Z" id="Combined-Shape" transform="translate(175.184998, 27.143832) scale(1, -1) translate(-175.184998, -27.143832) "></path>
                </g>
            </g>
        </g>
    </g>
</svg>