<svg width="41" height="50" viewBox="0 0 41 50" version="1.1" xmlns="http://www.w3.org/2000/svg" xmlns:xlink="http://www.w3.org/1999/xlink" xmlns:figma="http://www.figma.com/figma/ns">
<title>XMLID 3604</title>
<desc>Created using Figma</desc>
<g id="Canvas" transform="translate(-418 -216)" figma:type="canvas">
<g id="XMLID 3604" figma:type="frame">
<g id="XMLID 3689" figma:type="frame">
<g id="XMLID 3605" figma:type="vector">
<use xlink:href="#path0_fill" transform="translate(430.78 226.018)" fill="#999999"/>
</g>
<g id="XMLID 3610" figma:type="vector">
<use xlink:href="#path1_fill" transform="translate(436.777 249.333)" fill="#999999"/>
</g>
</g>
<g id="XMLID 3677" figma:type="vector">
<use xlink:href="#path2_fill" transform="translate(418 216)" fill="#999999"/>
</g>
</g>
</g>
<defs>
<path id="path0_fill" d="M 12.062 1.79666C 10.5346 0.448956 8.46811 -0.179972 6.40163 0.0446458C 3.21205 0.404035 0.516644 2.91976 0.0674074 6.06442C -0.0224399 6.73827 -0.0224399 7.3672 0.0674074 8.04105C 0.112331 8.53521 0.561545 8.84968 1.05571 8.75983C 1.54987 8.71491 1.86431 8.26567 1.81938 7.77151C 1.72954 7.27735 1.72954 6.78319 1.81938 6.28903C 2.17877 3.90808 4.15546 2.02129 6.58133 1.75175C 8.15366 1.57205 9.68105 2.06621 10.894 3.05453C 12.062 4.08777 12.7358 5.52532 12.7358 7.05273C 12.7358 9.34383 11.8823 12.0842 7.70442 12.3986C 6.94072 12.4436 6.35672 13.0725 6.35672 13.8362L 6.35672 20.1255L 6.35672 20.1704L 8.10869 20.1704L 8.10869 14.1057C 12.1069 13.7014 14.443 11.0959 14.443 7.05273C 14.4879 5.07609 13.5894 3.14437 12.062 1.79666Z"/>
<path id="path1_fill" d="M 1.25788 2.74192e-06C 0.584029 2.74192e-06 0 0.539078 0 1.21293C 0 1.88679 0.539105 2.42588 1.25788 2.42588C 1.93174 2.42588 2.51571 1.88679 2.51571 1.21293C 2.51571 0.584002 1.93174 2.74192e-06 1.25788 2.74192e-06Z"/>
<path id="path2_fill" d="M -2.19354e-05 -2.74192e-06L -2.19354e-05 50L 25.8311 50L 40.027 35.8041L 40.027 -2.74192e-06L -2.19354e-05 -2.74192e-06ZM 1.5723 1.5274L 38.4996 1.5274L 38.4996 34.726L 24.5732 34.726L 24.7529 48.4726L 1.5723 48.4726L 1.5723 1.5274ZM 26.1456 36.2084L 37.4214 36.2084L 26.2803 47.3495L 26.1456 36.2084Z"/>
</defs>
</svg>
