<svg width="60" height="15" viewBox="0 0 60 15" version="1.1" xmlns="http://www.w3.org/2000/svg" xmlns:xlink="http://www.w3.org/1999/xlink" xmlns:figma="http://www.figma.com/figma/ns">
<title>enem copy 13</title>
<desc>Created using Figma</desc>
<g id="Canvas" transform="translate(-2539 554)" figma:type="canvas">
<g id="enem copy 13" figma:type="vector-operation">
<use xlink:href="#path0_fill" transform="translate(2539 -554)" fill="#FFFFFF"/>
</g>
</g>
<defs>
<path id="path0_fill" fill-rule="evenodd" d="M 13.1399 9.25L 11.0264 9.00494C 10.4751 11.0571 9.1582 12.1291 6.92212 12.1291C 4.5332 12.1291 2.66479 10.2914 2.54224 7.68787L 13.2012 7.68787L 13.2012 6.67712C 13.2012 3.03229 11.0264 0 6.76904 0C 2.90967 0 0 3.03229 0 7.25909C 0 11.4246 2.90967 14.12 6.8916 14.12C 10.2302 14.12 12.4661 12.2822 13.1399 9.25ZM 10.5977 6.03394L 2.60352 6.03394C 2.90991 3.82861 4.34937 1.92963 6.76904 1.92963C 9.31128 1.92963 10.5059 3.88989 10.5977 6.03394ZM 16.0454 6.06458C 16.0454 3.61426 17.6382 2.02155 19.6597 2.02155C 21.7729 2.02155 22.845 3.43048 22.845 5.66638L 22.845 13.7524L 25.3872 13.7524L 25.3872 5.45197C 25.3872 2.32782 23.9783 0 20.4866 0C 18.4956 0 16.6885 1.1333 16.0454 2.75659L 16.0454 0.367554L 13.5032 0.367554L 13.5032 13.7524L 16.0454 13.7524L 16.0454 6.06458ZM 38.6453 9.25L 36.5317 9.00494C 35.9805 11.0571 34.6636 12.1291 32.4275 12.1291C 30.0386 12.1291 28.1702 10.2914 28.0476 7.68787L 38.7065 7.68787L 38.7065 6.67712C 38.7065 3.03229 36.5317 0 32.2744 0C 28.415 0 25.5054 3.03229 25.5054 7.25909C 25.5054 11.4246 28.415 14.12 32.397 14.12C 35.7356 14.12 37.9714 12.2822 38.6453 9.25ZM 28.1089 6.03394L 36.103 6.03394C 36.0112 3.88989 34.8167 1.92963 32.2744 1.92963C 29.8547 1.92963 28.4153 3.82861 28.1089 6.03394ZM 45.8079 0C 48.197 0 49.606 1.16388 50.188 2.90979C 50.8923 1.2558 52.5464 0 54.6904 0C 58.1821 0 59.4072 2.41968 59.4072 5.45197L 59.4072 13.7524L 56.865 13.7524L 56.865 5.66638C 56.865 3.43048 55.9463 2.02155 53.894 2.02155C 51.9951 2.02155 50.4636 3.61426 50.4636 6.06458L 50.4636 13.7524L 47.9214 13.7524L 47.9214 5.66638C 47.9214 3.43048 47.0024 2.02155 44.9504 2.02155C 43.0513 2.02155 41.5505 3.61426 41.5505 6.06458L 41.5505 13.7524L 39.0083 13.7524L 39.0083 0.367554L 41.5505 0.367554L 41.5505 2.75659C 42.1936 1.1333 43.7559 0 45.8079 0Z"/>
</defs>
</svg>
