<?xml version="1.0" encoding="UTF-8" standalone="no"?>
<svg width="176px" height="64px" viewBox="0 0 176 64" version="1.1" xmlns="http://www.w3.org/2000/svg" xmlns:xlink="http://www.w3.org/1999/xlink">
    <!-- Generator: Sketch 42 (36781) - http://www.bohemiancoding.com/sketch -->
    <title>Group 4</title>
    <desc>Created with Sketch.</desc>
    <defs></defs>
    <g id="Desktop" stroke="none" stroke-width="1" fill="none" fill-rule="evenodd">
        <g id="Página-&quot;Antes-da-Prova&quot;-Completa" transform="translate(-122.000000, -50.000000)" fill="#FFFFFF">
            <g id="Group-4" transform="translate(122.000000, 50.000000)">
                <path d="M32.3543909,26.6263135 L38.5556492,27.3452999 C36.5784364,36.2427574 30.0176849,41.6351559 20.2214943,41.6351559 C8.53796427,41.6351559 0,33.7263048 0,21.5035349 C0,9.10101838 8.53796427,0.203560874 19.8620011,0.203560874 C32.3543909,0.203560874 38.7353958,9.10101838 38.7353958,19.795942 L38.7353958,22.7617612 L7.45948457,22.7617612 C7.81897781,30.4009924 13.3012496,35.7933909 20.3113676,35.7933909 C26.8721191,35.7933909 30.7366714,32.6478251 32.3543909,26.6263135 Z M7.63923119,17.9086026 L31.0961646,17.9086026 C30.8265447,11.617471 27.3214857,5.86557929 19.8620011,5.86557929 C12.7620098,5.86557929 8.53796427,11.4377244 7.63923119,17.9086026 Z M47.0808396,17.9984759 C47.0808396,10.8086112 51.7542516,6.13519921 57.6858899,6.13519921 C63.8871482,6.13519921 67.032714,10.2693714 67.032714,16.8301229 L67.032714,40.5566762 L74.4921986,40.5566762 L74.4921986,16.2010097 C74.4921986,7.03393229 70.3580264,0.203560874 60.1124693,0.203560874 C54.2707042,0.203560874 48.9681791,3.52887327 47.0808396,8.29215861 L47.0808396,1.28204057 L39.621355,1.28204057 L39.621355,40.5566762 L47.0808396,40.5566762 L47.0808396,17.9984759 Z M107.193309,26.6263135 L113.394567,27.3452999 C111.417354,36.2427574 104.856603,41.6351559 95.0604123,41.6351559 C83.3768822,41.6351559 74.8389179,33.7263048 74.8389179,21.5035349 C74.8389179,9.10101838 83.3768822,0.203560874 94.700919,0.203560874 C107.193309,0.203560874 113.574314,9.10101838 113.574314,19.795942 L113.574314,22.7617612 L82.2984025,22.7617612 C82.6578957,30.4009924 88.1401675,35.7933909 95.1502856,35.7933909 C101.711037,35.7933909 105.575589,32.6478251 107.193309,26.6263135 Z M82.4781491,17.9086026 L105.935083,17.9086026 C105.665463,11.617471 102.160404,5.86557929 94.700919,5.86557929 C87.6009277,5.86557929 83.3768822,11.4377244 82.4781491,17.9086026 Z M147.26403,8.74152515 C145.556438,3.61874658 141.422265,0.203560874 134.412147,0.203560874 C128.390636,0.203560874 123.807097,3.52887327 121.919758,8.29215861 L121.919758,1.28204057 L114.460273,1.28204057 L114.460273,40.5566762 L121.919758,40.5566762 L121.919758,17.9984759 C121.919758,10.8086112 126.32355,6.13519921 131.895695,6.13519921 C137.917206,6.13519921 140.613406,10.2693714 140.613406,16.8301229 L140.613406,40.5566762 L148.07289,40.5566762 L148.07289,17.9984759 C148.07289,10.8086112 152.566556,6.13519921 158.138701,6.13519921 C164.160212,6.13519921 166.856412,10.2693714 166.856412,16.8301229 L166.856412,40.5566762 L174.315896,40.5566762 L174.315896,16.2010097 C174.315896,7.30355222 170.720964,0.203560874 160.475407,0.203560874 C154.184275,0.203560874 149.331117,3.88836651 147.26403,8.74152515 Z" id="enem-copy-13"></path>
                <path d="M7.74455924,62.7617347 L2.93231429,62.7617347 L2.93231429,59.9007562 L6.66345216,59.9007562 L6.66345216,58.9646757 L2.93231429,58.9646757 L2.93231429,56.3541976 L7.62590115,56.3541976 L7.62590115,55.4049329 L1.82483874,55.4049329 L1.82483874,63.7109995 L7.74455924,63.7109995 L7.74455924,62.7617347 Z M14.0926948,57.9494898 L12.9192981,57.9494898 L11.4031114,59.9403089 L9.86055614,57.9494898 L8.5948698,57.9494898 L10.7702682,60.7445471 L8.41029054,63.7109995 L9.59687148,63.7109995 L11.3371902,61.4696799 L13.1038774,63.7109995 L14.3695637,63.7109995 L11.9700334,60.6918102 L14.0926948,57.9494898 Z M18.7532487,61.1400741 L18.7532487,60.8632052 L17.4611939,61.1400741 C16.5514818,61.3378376 15.9713756,61.5092326 15.9713756,62.207997 C15.9713756,62.6958136 16.3009814,63.0649721 16.960193,63.0649721 C17.9753789,63.0649721 18.7532487,62.3002866 18.7532487,61.1400741 Z M19.8079873,59.9930459 L19.8079873,62.5771555 C19.8079873,62.8803928 19.9793823,63.0254194 20.2562512,63.0254194 C20.3880935,63.0254194 20.5990412,62.9858667 20.757252,62.8935771 L20.757252,63.4868675 C20.5594885,63.684631 20.3221724,63.8296576 19.8739084,63.8296576 C19.280618,63.8296576 18.8587225,63.3813937 18.7928014,62.6958136 C18.4763798,63.3682094 17.6589573,63.8692103 16.7228768,63.8692103 C15.602217,63.8692103 14.8770842,63.2627356 14.8770842,62.2739181 C14.8770842,61.1796268 15.8131648,60.7313629 17.1975092,60.454494 L18.7532487,60.1380724 L18.7532487,59.9139405 C18.7532487,59.1228865 18.2918005,58.6350699 17.4875623,58.6350699 C16.6569557,58.6350699 16.2086917,59.1228865 16.0372967,59.7952824 L15.0616635,59.66344 C15.2857955,58.582333 16.1427706,57.791279 17.5007466,57.791279 C18.9510122,57.791279 19.8079873,58.529596 19.8079873,59.9930459 Z M26.4989129,59.0437811 C26.2484125,58.2922798 25.6419378,57.791279 24.6135677,57.791279 C23.7302241,57.791279 23.0578282,58.2790956 22.7809593,58.9778599 L22.7809593,57.9494898 L21.686668,57.9494898 L21.686668,63.7109995 L22.7809593,63.7109995 L22.7809593,60.4017571 C22.7809593,59.3470185 23.4269867,58.6614384 24.2444091,58.6614384 C25.1277527,58.6614384 25.5232797,59.2679131 25.5232797,60.2303621 L25.5232797,63.7109995 L26.617571,63.7109995 L26.617571,60.4017571 C26.617571,59.3470185 27.2767827,58.6614384 28.0942051,58.6614384 C28.9775487,58.6614384 29.3730757,59.2679131 29.3730757,60.2303621 L29.3730757,63.7109995 L30.467367,63.7109995 L30.467367,60.1380724 C30.467367,58.8328334 29.9399977,57.791279 28.4369952,57.791279 C27.5140989,57.791279 26.8021503,58.3318325 26.4989129,59.0437811 Z M36.3540545,61.6674434 L37.2637665,61.7729173 C36.9737134,63.0781563 36.0112644,63.8692103 34.574183,63.8692103 C32.8602328,63.8692103 31.6077307,62.7089978 31.6077307,60.9159422 C31.6077307,59.096518 32.8602328,57.791279 34.5214461,57.791279 C36.3540545,57.791279 37.290135,59.096518 37.290135,60.6654417 L37.290135,61.1005214 L32.702022,61.1005214 C32.7547589,62.2211812 33.5589971,63.0122352 34.5873673,63.0122352 C35.5498163,63.0122352 36.1167383,62.550787 36.3540545,61.6674434 Z M32.7283904,60.3885728 L36.1694752,60.3885728 C36.1299225,59.4656766 35.6157374,58.6218857 34.5214461,58.6218857 C33.4798917,58.6218857 32.8602328,59.4393081 32.7283904,60.3885728 Z M42.1813404,55.4049329 L40.9947595,55.4049329 L40.9947595,63.7109995 L42.0626823,63.7109995 L42.0626823,57.0397777 L46.8881115,63.7109995 L47.7978236,63.7109995 L47.7978236,55.4049329 L46.7299007,55.4049329 L46.7299007,61.7597331 L42.1813404,55.4049329 Z M52.9593782,61.1400741 L52.9593782,60.8632052 L51.6673234,61.1400741 C50.7576113,61.3378376 50.1775051,61.5092326 50.1775051,62.207997 C50.1775051,62.6958136 50.5071109,63.0649721 51.1663226,63.0649721 C52.1815085,63.0649721 52.9593782,62.3002866 52.9593782,61.1400741 Z M54.0141168,59.9930459 L54.0141168,62.5771555 C54.0141168,62.8803928 54.1855119,63.0254194 54.4623807,63.0254194 C54.5942231,63.0254194 54.8051708,62.9858667 54.9633816,62.8935771 L54.9633816,63.4868675 C54.7656181,63.684631 54.5283019,63.8296576 54.080038,63.8296576 C53.4867475,63.8296576 53.0648521,63.3813937 52.9989309,62.6958136 C52.6825093,63.3682094 51.8650869,63.8692103 50.9290064,63.8692103 C49.8083466,63.8692103 49.0832138,63.2627356 49.0832138,62.2739181 C49.0832138,61.1796268 50.0192943,60.7313629 51.4036387,60.454494 L52.9593782,60.1380724 L52.9593782,59.9139405 C52.9593782,59.1228865 52.4979301,58.6350699 51.6936919,58.6350699 C50.8630852,58.6350699 50.4148213,59.1228865 50.2434263,59.7952824 L49.267793,59.66344 C49.491925,58.582333 50.3489001,57.791279 51.7068761,57.791279 C53.1571417,57.791279 54.0141168,58.529596 54.0141168,59.9930459 Z M55.4577179,60.8368368 C55.4577179,62.6694451 56.6706673,63.8692103 58.410986,63.8692103 C60.0985678,63.8692103 61.0082798,62.7485505 61.1269379,61.3510218 L60.1644889,61.2587322 C60.0721993,62.2739181 59.4657246,62.9990509 58.3978018,62.9990509 C57.3166947,62.9990509 56.5783776,62.1684443 56.5783776,60.8368368 C56.5783776,59.5052293 57.3166947,58.6746226 58.3978018,58.6746226 C59.4657246,58.6746226 60.0721993,59.3602027 60.1644889,60.3753886 L61.1269379,60.3094675 C61.0082798,58.925123 60.0985678,57.791279 58.410986,57.791279 C56.6706673,57.791279 55.4577179,59.0042284 55.4577179,60.8368368 Z M62.3200385,57.9494898 L62.3200385,63.7109995 L63.4143299,63.7109995 L63.4143299,57.9494898 L62.3200385,57.9494898 Z M62.2936701,56.6442508 L63.4275141,56.6442508 L63.4275141,55.4049329 L62.2936701,55.4049329 L62.2936701,56.6442508 Z M65.7280902,60.8368368 C65.7280902,62.1157073 66.3741176,63.0254194 67.5343301,63.0254194 C68.7077268,63.0254194 69.3669385,62.1157073 69.3669385,60.8368368 C69.3669385,59.544782 68.7077268,58.6482541 67.5343301,58.6482541 C66.3741176,58.6482541 65.7280902,59.544782 65.7280902,60.8368368 Z M70.4875983,60.8368368 C70.4875983,62.6298924 69.2350962,63.8692103 67.5343301,63.8692103 C65.8467483,63.8692103 64.6074305,62.6298924 64.6074305,60.8368368 C64.6074305,59.0437811 65.8467483,57.791279 67.5343301,57.791279 C69.2350962,57.791279 70.4875983,59.0437811 70.4875983,60.8368368 Z M72.7881744,60.4017571 C72.7881744,59.3470185 73.4737545,58.6614384 74.3439139,58.6614384 C75.2536259,58.6614384 75.7150741,59.2679131 75.7150741,60.2303621 L75.7150741,63.7109995 L76.8093654,63.7109995 L76.8093654,60.1380724 C76.8093654,58.7932807 76.2028907,57.791279 74.6998882,57.791279 C73.842913,57.791279 73.0650433,58.2790956 72.7881744,58.9778599 L72.7881744,57.9494898 L71.6938831,57.9494898 L71.6938831,63.7109995 L72.7881744,63.7109995 L72.7881744,60.4017571 Z M81.8918147,61.1400741 L81.8918147,60.8632052 L80.5997599,61.1400741 C79.6900478,61.3378376 79.1099416,61.5092326 79.1099416,62.207997 C79.1099416,62.6958136 79.4395474,63.0649721 80.098759,63.0649721 C81.1139449,63.0649721 81.8918147,62.3002866 81.8918147,61.1400741 Z M82.9465533,59.9930459 L82.9465533,62.5771555 C82.9465533,62.8803928 83.1179483,63.0254194 83.3948172,63.0254194 C83.5266595,63.0254194 83.7376072,62.9858667 83.895818,62.8935771 L83.895818,63.4868675 C83.6980545,63.684631 83.4607384,63.8296576 83.0124744,63.8296576 C82.419184,63.8296576 81.9972885,63.3813937 81.9313674,62.6958136 C81.6149458,63.3682094 80.7975233,63.8692103 79.8614428,63.8692103 C78.740783,63.8692103 78.0156502,63.2627356 78.0156502,62.2739181 C78.0156502,61.1796268 78.9517308,60.7313629 80.3360752,60.454494 L81.8918147,60.1380724 L81.8918147,59.9139405 C81.8918147,59.1228865 81.4303665,58.6350699 80.6261283,58.6350699 C79.7955217,58.6350699 79.3472577,59.1228865 79.1758627,59.7952824 L78.2002295,59.66344 C78.4243615,58.582333 79.2813366,57.791279 80.6393126,57.791279 C82.0895782,57.791279 82.9465533,58.529596 82.9465533,59.9930459 Z M84.825234,55.4049329 L84.825234,63.7109995 L85.9195253,63.7109995 L85.9195253,55.4049329 L84.825234,55.4049329 Z M94.2781839,60.9950476 L94.2781839,60.6654417 C94.2781839,59.4129396 93.48713,58.6746226 92.4455756,58.6746226 C91.3117316,58.6746226 90.6788884,59.5184135 90.6788884,60.8368368 C90.6788884,62.15526 91.3117316,62.9990509 92.4455756,62.9990509 C93.48713,62.9990509 94.2781839,62.2607339 94.2781839,60.9950476 Z M94.2649997,63.7109995 L94.2649997,62.5112343 C94.0013151,63.2231829 93.2761823,63.8692103 92.1950752,63.8692103 C90.4811249,63.8692103 89.5582286,62.5376028 89.5582286,60.8368368 C89.5582286,59.1360707 90.4811249,57.791279 92.1950752,57.791279 C93.2761823,57.791279 94.0013151,58.4504906 94.2649997,59.1624392 L94.2649997,55.4049329 L95.359291,55.4049329 L95.359291,63.7109995 L94.2649997,63.7109995 Z M97.6730514,60.8368368 C97.6730514,62.1157073 98.3190788,63.0254194 99.4792913,63.0254194 C100.652688,63.0254194 101.3119,62.1157073 101.3119,60.8368368 C101.3119,59.544782 100.652688,58.6482541 99.4792913,58.6482541 C98.3190788,58.6482541 97.6730514,59.544782 97.6730514,60.8368368 Z M102.432559,60.8368368 C102.432559,62.6298924 101.180057,63.8692103 99.4792913,63.8692103 C97.7917095,63.8692103 96.5523916,62.6298924 96.5523916,60.8368368 C96.5523916,59.0437811 97.7917095,57.791279 99.4792913,57.791279 C101.180057,57.791279 102.432559,59.0437811 102.432559,60.8368368 Z M112.056904,62.7617347 L107.244659,62.7617347 L107.244659,59.9007562 L110.975797,59.9007562 L110.975797,58.9646757 L107.244659,58.9646757 L107.244659,56.3541976 L111.938246,56.3541976 L111.938246,55.4049329 L106.137184,55.4049329 L106.137184,63.7109995 L112.056904,63.7109995 L112.056904,62.7617347 Z M114.476139,60.4017571 C114.476139,59.3470185 115.161719,58.6614384 116.031878,58.6614384 C116.94159,58.6614384 117.403038,59.2679131 117.403038,60.2303621 L117.403038,63.7109995 L118.49733,63.7109995 L118.49733,60.1380724 C118.49733,58.7932807 117.890855,57.791279 116.387852,57.791279 C115.530877,57.791279 114.753008,58.2790956 114.476139,58.9778599 L114.476139,57.9494898 L113.381847,57.9494898 L113.381847,63.7109995 L114.476139,63.7109995 L114.476139,60.4017571 Z M119.571772,61.7729173 C119.677246,63.1968144 120.771537,63.8692103 122.208619,63.8692103 C123.55341,63.8692103 124.568596,63.2495514 124.568596,62.1025231 C124.568596,61.0609687 123.883016,60.625889 122.722804,60.4281255 L121.641697,60.2567305 C121.048406,60.1512567 120.758353,59.9139405 120.758353,59.4524923 C120.758353,58.925123 121.232985,58.5955172 121.958118,58.5955172 C122.933752,58.5955172 123.474305,59.0042284 123.606147,59.887572 L124.489491,59.8348351 C124.384017,58.5032276 123.487489,57.791279 121.958118,57.791279 C120.626511,57.791279 119.743167,58.5032276 119.743167,59.5579662 C119.743167,60.5467836 120.389195,61.0082318 121.470302,61.1796268 L122.445935,61.3510218 C123.157883,61.4828642 123.540226,61.6674434 123.540226,62.207997 C123.540226,62.7881032 122.973304,63.0649721 122.208619,63.0649721 C121.219801,63.0649721 120.600142,62.5903397 120.494668,61.7069961 L119.571772,61.7729173 Z M125.774881,57.9494898 L125.774881,63.7109995 L126.869173,63.7109995 L126.869173,57.9494898 L125.774881,57.9494898 Z M125.748513,56.6442508 L126.882357,56.6442508 L126.882357,55.4049329 L125.748513,55.4049329 L125.748513,56.6442508 Z M129.525723,60.4017571 C129.525723,59.3470185 130.211303,58.6614384 131.081462,58.6614384 C131.991174,58.6614384 132.452623,59.2679131 132.452623,60.2303621 L132.452623,63.7109995 L133.546914,63.7109995 L133.546914,60.1380724 C133.546914,58.7932807 132.940439,57.791279 131.437437,57.791279 C130.580462,57.791279 129.802592,58.2790956 129.525723,58.9778599 L129.525723,57.9494898 L128.431432,57.9494898 L128.431432,63.7109995 L129.525723,63.7109995 L129.525723,60.4017571 Z M135.794753,60.8368368 C135.794753,62.1157073 136.440781,63.0254194 137.600993,63.0254194 C138.77439,63.0254194 139.433601,62.1157073 139.433601,60.8368368 C139.433601,59.544782 138.77439,58.6482541 137.600993,58.6482541 C136.440781,58.6482541 135.794753,59.544782 135.794753,60.8368368 Z M140.554261,60.8368368 C140.554261,62.6298924 139.301759,63.8692103 137.600993,63.8692103 C135.913411,63.8692103 134.674093,62.6298924 134.674093,60.8368368 C134.674093,59.0437811 135.913411,57.791279 137.600993,57.791279 C139.301759,57.791279 140.554261,59.0437811 140.554261,60.8368368 Z M148.860183,63.7109995 L151.286082,56.5651454 L151.338819,56.5651454 L151.338819,63.7109995 L152.485847,63.7109995 L152.485847,55.4049329 L150.679607,55.4049329 L148.464656,62.1684443 L148.425103,62.1684443 L146.091494,55.4049329 L144.258886,55.4049329 L144.258886,63.7109995 L145.326809,63.7109995 L145.326809,56.5651454 L145.379545,56.5651454 L147.897734,63.7109995 L148.860183,63.7109995 Z M157.001374,57.0661462 L158.280245,55.4049329 L156.948637,55.4049329 L156.236689,57.0661462 L157.001374,57.0661462 Z M158.491192,61.6674434 L159.400905,61.7729173 C159.110851,63.0781563 158.148402,63.8692103 156.711321,63.8692103 C154.997371,63.8692103 153.744869,62.7089978 153.744869,60.9159422 C153.744869,59.096518 154.997371,57.791279 156.658584,57.791279 C158.491192,57.791279 159.427273,59.096518 159.427273,60.6654417 L159.427273,61.1005214 L154.83916,61.1005214 C154.891897,62.2211812 155.696135,63.0122352 156.724505,63.0122352 C157.686954,63.0122352 158.253876,62.550787 158.491192,61.6674434 Z M154.865528,60.3885728 L158.306613,60.3885728 C158.267061,59.4656766 157.752875,58.6218857 156.658584,58.6218857 C155.61703,58.6218857 154.997371,59.4393081 154.865528,60.3885728 Z M165.023907,60.9950476 L165.023907,60.6654417 C165.023907,59.4129396 164.232853,58.6746226 163.191299,58.6746226 C162.057455,58.6746226 161.424612,59.5184135 161.424612,60.8368368 C161.424612,62.15526 162.057455,62.9990509 163.191299,62.9990509 C164.232853,62.9990509 165.023907,62.2607339 165.023907,60.9950476 Z M165.010723,63.7109995 L165.010723,62.5112343 C164.747038,63.2231829 164.021906,63.8692103 162.940799,63.8692103 C161.226848,63.8692103 160.303952,62.5376028 160.303952,60.8368368 C160.303952,59.1360707 161.226848,57.791279 162.940799,57.791279 C164.021906,57.791279 164.747038,58.4504906 165.010723,59.1624392 L165.010723,55.4049329 L166.105014,55.4049329 L166.105014,63.7109995 L165.010723,63.7109995 Z M167.667274,57.9494898 L167.667274,63.7109995 L168.761565,63.7109995 L168.761565,57.9494898 L167.667274,57.9494898 Z M167.640905,56.6442508 L168.774749,56.6442508 L168.774749,55.4049329 L167.640905,55.4049329 L167.640905,56.6442508 Z M171.075325,60.8368368 C171.075325,62.1157073 171.721353,63.0254194 172.881565,63.0254194 C174.054962,63.0254194 174.714173,62.1157073 174.714173,60.8368368 C174.714173,59.544782 174.054962,58.6482541 172.881565,58.6482541 C171.721353,58.6482541 171.075325,59.544782 171.075325,60.8368368 Z M175.834833,60.8368368 C175.834833,62.6298924 174.582331,63.8692103 172.881565,63.8692103 C171.193983,63.8692103 169.954665,62.6298924 169.954665,60.8368368 C169.954665,59.0437811 171.193983,57.791279 172.881565,57.791279 C174.582331,57.791279 175.834833,59.0437811 175.834833,60.8368368 Z" id="Exame-Nacional-do-En"></path>
            </g>
        </g>
    </g>
</svg>